<svg id="Capa_1" data-name="Capa 1" xmlns="http://www.w3.org/2000/svg" viewBox="0 0 1920 1745.73"><defs><style>.cls-1{fill:#24262f}.cls-2{font-size:41.86px}.cls-10,.cls-11,.cls-12,.cls-13,.cls-14,.cls-15,.cls-16,.cls-17,.cls-18,.cls-19,.cls-2,.cls-20,.cls-23,.cls-24,.cls-26,.cls-27,.cls-28,.cls-29,.cls-30,.cls-31,.cls-4,.cls-5,.cls-7{fill:#fff}.cls-10,.cls-11,.cls-12,.cls-13,.cls-15,.cls-16,.cls-17,.cls-18,.cls-19,.cls-2,.cls-20,.cls-23,.cls-26,.cls-27,.cls-30,.cls-31,.cls-4{font-family:Montserrat-Bold,Montserrat}.cls-10,.cls-11,.cls-12,.cls-13,.cls-15,.cls-16,.cls-17,.cls-18,.cls-19,.cls-2,.cls-21,.cls-23,.cls-26,.cls-27,.cls-30,.cls-31,.cls-4{font-weight:700}.cls-3,.cls-32,.cls-33,.cls-35,.cls-8{fill:none;stroke-miterlimit:10}.cls-3{stroke:#fff}.cls-4{font-size:50.99px;letter-spacing:.1em}.cls-5{font-size:30.62px;letter-spacing:.08em}.cls-14,.cls-22,.cls-24,.cls-5,.cls-7{font-family:Montserrat-Regular,Montserrat}.cls-22,.cls-6,.cls-7{letter-spacing:.08em}.cls-22,.cls-7{font-size:16.06px}.cls-8{stroke:#393948;stroke-width:2px}.cls-9{fill:#393948}.cls-10,.cls-15,.cls-25,.cls-29{opacity:.08}.cls-10{font-size:208.89px}.cls-10,.cls-11,.cls-12{letter-spacing:.1em}.cls-11{font-size:74.86px}.cls-12{font-size:19.61px}.cls-13,.cls-23{font-size:21.67px}.cls-13{letter-spacing:.1em}.cls-14{font-size:16.85px;letter-spacing:.08em}.cls-15,.cls-16{font-size:199.12px;letter-spacing:.1em}.cls-16{font-size:71.36px}.cls-17,.cls-18,.cls-20{font-size:39.6px;letter-spacing:.1em}.cls-18,.cls-20{font-size:18.69px}.cls-19{font-size:25.84px}.cls-19,.cls-23{letter-spacing:.1em}.cls-24{font-size:18.62px;letter-spacing:.08em}.cls-26{font-size:149.75px;letter-spacing:.1em}.cls-27{font-size:201.96px}.cls-27,.cls-30,.cls-31{letter-spacing:.1em}.cls-30{font-size:93.6px}.cls-31{font-size:144.87px}.cls-32,.cls-33,.cls-35{stroke:#161618}.cls-32{stroke-width:3px}.cls-34{fill:#161618}.cls-35{stroke-width:5px}</style></defs><title>elementos</title><path class="cls-1" d="M0 0h1920v1745.73H0z"/><text class="cls-2" transform="translate(930.64 150.24)">2.</text><circle class="cls-3" cx="944.23" cy="136.24" r="43.55"/><text class="cls-4" transform="translate(582.83 304.67)">MODELO DE INVERSIÓN</text><text class="cls-5" transform="translate(701.56 351.48)">c<tspan class="cls-6" x="19.72" y="0">on renta anticipada en US$</tspan></text><path class="cls-3" d="M955.49 375.23l-11.86 14.33-12.85-14.33M944.23 3.24v89.44"/><text class="cls-7" transform="translate(575.97 1371.73)">posesiñon de<tspan x="-38.93" y="19.27">departamento en</tspan><tspan x="30.29" y="38.55">desarrollo</tspan></text><path class="cls-8" d="M461.95 1369.26h98.53"/><circle class="cls-9" cx="463.9" cy="1369.26" r="6.53"/><text class="cls-10" transform="translate(1334.91 680.9)">12%</text><text class="cls-11" transform="matrix(.93 0 0 1 1333.67 588.98)">12%</text><text class="cls-12" transform="translate(1336.66 625)">AUMENTO DE CAPITAL</text><text class="cls-13" transform="translate(383.17 539.57)">SIN LÍMITE</text><text class="cls-14" transform="translate(1336.67 652.87)">anual garantizado.</text><text class="cls-15" transform="translate(147.45 967.58)">10%</text><text class="cls-16" transform="matrix(.93 0 0 1 421.42 879.96)">10%</text><text class="cls-17" transform="matrix(.93 0 0 1 1345.74 793.8)">24MESES</text><text class="cls-18" transform="translate(354.33 914.29)">BENEFICIO INICIAL</text><text class="cls-19" transform="translate(257.9 1205.56)">MODALIDADES DE RETORNO</text><text class="cls-19" transform="translate(938.18 1426.97)">BENEFICIOS ADICIONALES</text><text class="cls-20" transform="translate(940.87 1271.1)"><tspan class="cls-21">RENTA ANUAL <tspan x="0" y="22.43">ANTICIPADA</tspan></tspan><tspan class="cls-22"><tspan x="0" y="41.71">en US$</tspan></tspan></text><text class="cls-20" transform="translate(940.87 1055.84)"><tspan class="cls-21">GARANTÍA</tspan><tspan class="cls-22"><tspan x="0" y="19.27">Proyectos en construcción</tspan><tspan x="0" y="38.55">de la empresa</tspan></tspan></text><text class="cls-7" transform="translate(478.91 940.86)">exclusivo</text><text class="cls-7" transform="translate(526.91 1244.86)">capital en efectivo</text><text class="cls-7" transform="translate(938.14 1453.86)">costo de reventa del departamento<tspan x="0" y="19.27">superior al costo de inversión</tspan></text><text class="cls-7" transform="translate(547.42 1282.13)">compra final del<tspan x="-16" y="19.27">departamento del</tspan><tspan x="-39.3" y="38.55">desarrollo utilizando</tspan><tspan x="-27.92" y="57.82">los m2 de inversión</tspan></text><text class="cls-23" transform="translate(1345.74 826.62)">PERÍODO DE INVERSIÓN</text><text class="cls-24" transform="translate(1345.74 857.42)">de inversión</text><text class="cls-24" transform="translate(392.09 565.48)">de inversión</text><g class="cls-25"><text class="cls-26" transform="translate(240.45 625.42)">SIN</text></g><g class="cls-25"><text class="cls-27" transform="translate(1336.66 907)">24</text></g><g class="cls-25"><path class="cls-28" d="M1170.78 1057.31a54.88 54.88 0 0 1 .53 7.41 54.24 54.24 0 1 1-10.17-31.51c3.26-4.47 6.8-8.73 10-13.25a69.86 69.86 0 1 0 11.87 20.52c-4.17 5.52-8.26 11.15-12.23 16.83z"/></g><path class="cls-29" d="M1135.91 1093.68c28-34.37 74.28-110.61 74.28-110.61l-75.89 92.85s-38.35-21.53-42-18.17"/><g class="cls-25"><text class="cls-30" transform="translate(940.87 1264.13)">SI</text></g><g class="cls-25"><text class="cls-31" transform="translate(1556.62 1233.18)">m2</text></g><path class="cls-8" d="M640.71 591.42h61.54m217.64 835.55v-503.2m42.02-380.59h338.96m-137.41 266.33h137.41m197.87 465.7h57.88M640.71 835.39h64.96m-243.72 402.8h46.71m-46.71 41.47h46.71"/><path class="cls-32" d="M704 591.42c10.79 5.22 215.94 77.11 215.94 77.11V930.3L704 835.31zm947.7 542.65c-6.73 3-112.91 71.33-112.91 71.33l-208.46-105 127.15-64.16z"/><path class="cls-33" d="M1644 1101.48c-6.74 3-112.92 71.33-112.92 71.33l-208.45-105 127.15-64.16z"/><path class="cls-32" d="M704 591.42s254.84-48.24 262.39-48.24 198.4 48.24 198.4 48.24l-244.9 77.11V930.3l244.85-120.79V606.8"/><circle class="cls-34" cx="1164.74" cy="613.21" r="6.53"/><circle class="cls-34" cx="795.43" cy="852.58" r="6.53"/><circle class="cls-34" cx="919.89" cy="669.28" r="6.53"/><circle class="cls-9" cx="703.95" cy="591.42" r="6.53"/><circle class="cls-9" cx="1164.74" cy="809.51" r="6.53"/><circle class="cls-9" cx="463.9" cy="1238.19" r="6.53"/><circle class="cls-9" cx="463.9" cy="1279.66" r="6.53"/><path class="cls-8" d="M1498.19 1275.21v-129.92"/><circle class="cls-9" cx="1498.19" cy="1141.39" r="6.53"/><circle class="cls-34" cx="1053.57" cy="713.54" r="6.53"/><circle class="cls-34" cx="934.34" cy="597.95" r="6.53"/><circle class="cls-9" cx="919.89" cy="930.3" r="6.53"/><circle class="cls-9" cx="703.95" cy="835.39" r="6.53"/><circle class="cls-9" cx="968.44" cy="543.18" r="6.53"/><path class="cls-35" d="M934.34 598c-6.82-2-100.6-31-100.6-31m219.83 297.35V713.54m-349.62 0l91.48 36.67v108.9"/><text class="cls-20" transform="translate(1567.44 1210.25)"><tspan class="cls-21">RESPALDO<tspan x="0" y="22.43">DE INVERSIÓN</tspan></tspan><tspan class="cls-22"><tspan x="0" y="41.71">Adquirís metros</tspan><tspan x="0" y="60.98">cuadrados de un</tspan><tspan x="0" y="80.26">departamento</tspan></tspan></text><path class="cls-8" d="M1300.87 461.47h549.03v888.01h-549.03zm-1191.2-.31h531.05v577.21H109.67z"/></svg>