<svg id="Capa_1" data-name="Capa 1" xmlns="http://www.w3.org/2000/svg" viewBox="0 0 62.16 48.25"><defs><style>.cls-1{fill:#191a22}</style></defs><title>elementos</title><path class="cls-1" d="M40 28.56c.2-.1.22-.27.27-.46a4.37 4.37 0 0 1 .28-1.1.11.11 0 0 0 0-.08 2.57 2.57 0 0 1 .22-1c.08-.31 0-.67.27-.94a2.57 2.57 0 0 1 .22-1 2.3 2.3 0 0 1 .27-1 .14.14 0 0 0 0-.06 2.75 2.75 0 0 1 .22-1 2.76 2.76 0 0 1 .27-1 .16.16 0 0 0 0-.09 3 3 0 0 1 .22-1.06 6.79 6.79 0 0 1 .43-1.27 4.72 4.72 0 0 1 1.65-1.89 3.6 3.6 0 0 1 .93-.43c1.67-.54 3.39-.21 5.08-.3.19 0 .26.17.18.39-.14.4-.19.82-.33 1.21a5.92 5.92 0 0 1-.27 1 2.5 2.5 0 0 0-.16.68c-.07.32-.16.63-.24.95a3.61 3.61 0 0 1-.29 1.07.19.19 0 0 0 0 .08 2.52 2.52 0 0 1-.23 1.06c-.1.3 0 .66-.26.92v.08a2.35 2.35 0 0 1-.24 1.05c-.09.3 0 .67-.26.92v.05a2.58 2.58 0 0 1-.23 1c-.08.31 0 .67-.27.94a.19.19 0 0 0 0 .08 2.34 2.34 0 0 1-.23 1.05c-.08.31 0 .68-.27.94a.22.22 0 0 0 0 .08A2.73 2.73 0 0 1 47 30.5c-.15.54-.23 1.1-.43 1.63a8.87 8.87 0 0 1-.36 1 4.22 4.22 0 0 1-1.42 1.63 9.1 9.1 0 0 1-1.29.64h-.06c-.5 0-1 .19-1.48.18h-3.32c-.18 0-.25 0-.29-.24-.12-.68-.11-1.39-.29-2.07v-.09a13.1 13.1 0 0 0-.23-2.18 8.08 8.08 0 0 0-.26-1.83.19.19 0 0 1 0-.08 9.71 9.71 0 0 0-.25-2.09 9.05 9.05 0 0 0-.25-1.88.74.74 0 0 1 0-.26c0-.68-.23-1.33-.2-2a.82.82 0 0 0-.06-.2 1.44 1.44 0 0 0-.21.56 9.42 9.42 0 0 1-.24 1 4.74 4.74 0 0 1-.27 1 3.68 3.68 0 0 0-.17.73c-.08.33-.16.66-.25 1a3.58 3.58 0 0 1-.27 1 .19.19 0 0 0 0 .08 2.38 2.38 0 0 1-.23 1.06c-.1.31 0 .66-.26.95a1.94 1.94 0 0 0-.16.7c-.06.32-.19.64-.24 1a3.93 3.93 0 0 1-.27.91 4.19 4.19 0 0 1-.39.83 4.44 4.44 0 0 1-1.27 1.32 4.36 4.36 0 0 1-1.31.62 4.29 4.29 0 0 1-1.08.19h-3.71c-.23 0-.27-.08-.31-.29-.1-.54-.1-1.09-.2-1.62a13.24 13.24 0 0 0-.16-1.32c-.19-.57 0-1.18-.26-1.74a2.83 2.83 0 0 1 0-.59c-.14-.7-.13-1.41-.29-2.1-.05-.21 0-.44-.06-.66-.14-.68-.11-1.39-.29-2.07a2.63 2.63 0 0 1 0-.49 18.81 18.81 0 0 1-.19-2h-.07a1.81 1.81 0 0 0-.22.52 16.19 16.19 0 0 1-.41 1.7c-.13.56-.27 1.11-.42 1.67-.09.31-.16.63-.24.95a5.52 5.52 0 0 1-.28 1.06 4.29 4.29 0 0 0-.16.71c-.07.32-.16.64-.24 1a7.77 7.77 0 0 1-.26 1 3.69 3.69 0 0 0-.2.81 3.81 3.81 0 0 1-.58 1.37 3.6 3.6 0 0 1-1.14 1.19 5.65 5.65 0 0 1-1.88.77 25.49 25.49 0 0 1-3.49.11h-.86c-.29 0-.33-.15-.19-.34a.9.9 0 0 0 .11-.34 5.94 5.94 0 0 1 .29-1.12.26.26 0 0 0 0-.11 9.35 9.35 0 0 1 .4-1.74c.14-.55.26-1.11.43-1.65.09-.32.17-.67.24-1a4 4 0 0 1 .25-.94 3.06 3.06 0 0 0 .17-.74 7.79 7.79 0 0 0 .24-1 7.08 7.08 0 0 1 .28-1c.08-.24.1-.5.16-.74s.19-.65.25-1a6.74 6.74 0 0 1 .26-1c.07-.24.11-.49.17-.74l.24-1c.15-.56.27-1.13.44-1.69a6.86 6.86 0 0 1 .36-1.05 4.78 4.78 0 0 1 1.25-1.57 4 4 0 0 1 1.07-.63 4.22 4.22 0 0 1 .76-.23 32.1 32.1 0 0 1 4.49-.16c.21 0 .26.06.32.26.16.49.05 1 .18 1.46s.05.9.17 1.32 0 1 .18 1.42 0 .88.16 1.29 0 1 .18 1.45 0 .87.16 1.28 0 1 .18 1.45 0 .89.16 1.3a6.77 6.77 0 0 1 .16 1.41s0 .1.06.11.06 0 .09-.06a.92.92 0 0 0 .06-.39 5.34 5.34 0 0 1 .3-1.1.2.2 0 0 0 0-.11c.05-.46.23-.88.31-1.33s.17-.67.25-1a4.07 4.07 0 0 1 .25-1 3.06 3.06 0 0 0 .17-.74c.08-.33.18-.66.26-1a8.58 8.58 0 0 1 .24-1 4.48 4.48 0 0 0 .23-1 4.29 4.29 0 0 1 .23-.87 4.46 4.46 0 0 1 .87-1.56 5.14 5.14 0 0 1 1.34-1.08c.17-.1.43-.16.6-.25.36-.2.77 0 1.11-.27h3.94c.2 0 .23.08.29.25.15.44 0 .92.17 1.34.19.58 0 1.21.27 1.77a.07.07 0 0 1 0 .05 9.7 9.7 0 0 0 .23 2.15 7.89 7.89 0 0 0 .27 1.87v.05a8.89 8.89 0 0 0 .23 2.12 10.22 10.22 0 0 0 .26 1.9 3.15 3.15 0 0 1 .05.82.72.72 0 0 0 .08.4"/></svg>