<svg id="Capa_1" data-name="Capa 1" xmlns="http://www.w3.org/2000/svg" xmlns:xlink="http://www.w3.org/1999/xlink" viewBox="0 0 41.34 41.83"><defs><style>.cls-1{fill:none;}.cls-2{clip-path:url(#clip-path);}.cls-3{fill:url(#Degradado_sin_nombre);}.cls-4{fill:#191923;}</style><clipPath id="clip-path"><rect class="cls-1" x="-1287.32" y="-916.02" width="840.52" height="3751.75"/></clipPath><linearGradient id="Degradado_sin_nombre" x1="-1287.32" y1="2835.73" x2="-1286.32" y2="2835.73" gradientTransform="matrix(0, 3247.26, 3247.26, 0, -9209214.67, 4179607.49)" gradientUnits="userSpaceOnUse"><stop offset="0" stop-color="#ecedef"/><stop offset="0" stop-color="#ecedef"/><stop offset="1" stop-color="#caccd2"/></linearGradient></defs><title>NORWEB</title><g class="cls-2"><rect class="cls-3" x="-2490.67" y="-663.76" width="3247.23" height="3247.23" transform="translate(-932.67 -331.97) rotate(-45)"/></g><polygon class="cls-4" points="20.69 41.84 20.03 41.84 20.03 22.43 10.05 22.43 10.05 41.84 9.39 41.84 9.39 21.77 20.69 21.77 20.69 41.84"/><polygon class="cls-4" points="35.35 27.4 34.69 27.4 34.69 10.47 16.79 10.47 16.79 22.1 16.13 22.1 16.13 9.81 35.35 9.81 35.35 27.4"/><rect class="cls-4" x="11.36" y="23.8" width="7.24" height="5.25"/><rect class="cls-4" x="11.36" y="29.87" width="7.24" height="5.25"/><rect class="cls-4" x="17.72" y="11.66" width="16" height="5.25"/><rect class="cls-4" x="20.36" y="29.04" width="19.09" height="5.25"/><polygon class="cls-4" points="41.34 41.84 40.68 41.84 40.68 27.73 20.36 27.73 20.36 27.07 41.34 27.07 41.34 41.84"/></svg>