<svg id="Capa_1" data-name="Capa 1" xmlns="http://www.w3.org/2000/svg" xmlns:xlink="http://www.w3.org/1999/xlink" viewBox="0 0 35.76 41.07"><defs><style>.cls-1{fill:none;}.cls-2{clip-path:url(#clip-path);}.cls-3{fill:url(#Degradado_sin_nombre);}.cls-4{fill:#191923;}</style><clipPath id="clip-path"><rect class="cls-1" x="-1296.71" y="-1060.53" width="840.52" height="3751.75"/></clipPath><linearGradient id="Degradado_sin_nombre" x1="-1296.71" y1="2691.22" x2="-1295.71" y2="2691.22" gradientTransform="matrix(0, 3247.26, 3247.26, 0, -8739985.09, 4209940.6)" gradientUnits="userSpaceOnUse"><stop offset="0" stop-color="#ecedef"/><stop offset="0" stop-color="#ecedef"/><stop offset="1" stop-color="#caccd2"/></linearGradient></defs><title>NORWEB</title><g class="cls-2"><rect class="cls-3" x="-2500.06" y="-808.26" width="3247.23" height="3247.23" transform="translate(-833.24 -380.93) rotate(-45)"/></g><path class="cls-4" d="M11.1,34.65H10l0-30h.56c1.72,0,3.47,0,5.26,0l3.06.05,0,1.12-3.06,0c-1.58,0-3.14,0-4.68,0Z"/><path class="cls-4" d="M27,34.66c-.19-9.53-.2-19.36-.2-28.87-4.34,0-6.37.06-7.36,0h-.54v0c-.35,0-.39-.06-.45-.13l-.17-.16V5.29c0-.39.22-.51.6-.55h0a3.94,3.94,0,0,1,.5,0v0l7.94-.08h.56v.57c0,9.69,0,19.71.21,29.42Z"/><path class="cls-4" d="M18.16,12.36H12.05V7.22h6.11Zm-5-1.13H17V8.34H13.17Z"/><path class="cls-4" d="M25.74,12.36H19.62V7.22h6.12Zm-5-1.13h3.87V8.34H20.74Z"/><path class="cls-4" d="M18.16,18.07H12.05V12.93h6.11Zm-5-1.13H17V14.06H13.17Z"/><rect class="cls-4" x="20.18" y="13.49" width="4.99" height="4.01"/><path class="cls-4" d="M18.16,23.56H12.05V18.42h6.11Zm-5-1.12H17V19.55H13.17Z"/><path class="cls-4" d="M25.74,23.56H19.62V18.42h6.12Zm-5-1.12h3.87V19.55H20.74Z"/></svg>