<?xml version="1.0" encoding="UTF-8"?>
<!DOCTYPE svg PUBLIC "-//W3C//DTD SVG 1.1//EN" "http://www.w3.org/Graphics/SVG/1.1/DTD/svg11.dtd">
<!-- Creator: CorelDRAW 2017 -->
<svg xmlns="http://www.w3.org/2000/svg" xml:space="preserve" width="138px" height="138px" version="1.1" style="shape-rendering:geometricPrecision; text-rendering:geometricPrecision; image-rendering:optimizeQuality; fill-rule:evenodd; clip-rule:evenodd"
viewBox="0 0 47 47"
 xmlns:xlink="http://www.w3.org/1999/xlink">
 <defs>
  <style type="text/css">
   <![CDATA[
    .fil0 {fill:#1C1C21;fill-rule:nonzero}
    .fil1 {fill:#E5E5E5;fill-rule:nonzero}
   ]]>
  </style>
 </defs>
 <g id="Capa_x0020_1">
  <metadata id="CorelCorpID_0Corel-Layer"/>
  <g id="_2090497025936">
   <polygon class="fil0" points="23,0 47,0 0,47 0,23 "/>
   <polygon class="fil1" points="4,35 1,32 3,31 3,31 2,32 3,33 4,32 4,32 3,33 4,34 5,33 5,33 "/>
   <polygon id="1" class="fil1" points="6,32 3,30 4,30 7,31 5,29 5,28 7,31 7,31 4,30 6,32 "/>
   <path id="2" class="fil1" d="M9 29l-2 -2 1 -1c0,0 0,0 0,0 0,0 0,0 0,0 0,0 0,0 0,0 0,0 0,0 0,0 0,0 0,0 0,1 0,0 0,1 0,1l-1 1 1 1 0 0zm-1 -1l1 -1c0,0 0,0 0,-1 0,0 0,0 0,0 0,0 0,0 0,0 0,0 0,0 0,0 0,0 0,0 0,0l-1 1 1 1z"/>
   <polygon id="3" class="fil1" points="11,27 9,25 9,25 11,27 12,26 12,26 "/>
   <path id="4" class="fil1" d="M12 26l-1 -3 0 0 3 1 0 0 -1 0 -1 1 0 1 0 0zm0 -2l1 -1 -1 0c0,0 0,0 -1,0 0,0 0,0 0,1l0 1z"/>
   <polygon id="5" class="fil1" points="15,23 12,21 13,21 16,21 14,20 14,19 16,22 16,22 13,21 15,23 "/>
   <polygon id="6" class="fil1" points="17,21 15,19 15,19 17,21 "/>
   <polygon id="7" class="fil1" points="18,20 16,18 17,17 17,17 16,18 17,19 18,18 18,18 17,19 18,20 "/>
   <polygon id="8" class="fil1" points="20,18 18,16 18,16 20,18 "/>
   <path id="9" class="fil1" d="M21 15l0 0c0,0 0,1 0,1 0,0 0,1 0,1 0,0 0,0 -1,0 0,0 -1,0 -1,0 0,0 -1,0 -1,0 0,0 0,0 0,-1 0,0 0,-1 0,-1 0,0 0,0 0,-1 0,0 0,0 1,0 0,0 1,0 1,0l0 0c0,0 0,0 -1,0 0,0 0,0 0,0 0,0 0,0 0,1 0,0 0,0 0,1 0,0 0,0 0,1 0,0 0,0 1,0 0,0 0,0 1,0 0,0 0,0 0,0 0,0 0,0 0,-1 0,0 0,0 0,-1z"/>
   <path id="10" class="fil1" d="M23 15l-1 -3 0 0 3 1 0 0 -1 0 -1 1 0 1 0 0zm0 -2l1 -1 -1 0c0,0 0,0 -1,0 0,0 0,0 0,1l0 1z"/>
   <path id="11" class="fil1" d="M26 11l0 0c0,0 0,1 0,1 0,0 0,1 0,1 0,0 0,0 -1,0 0,0 -1,0 -1,0 0,0 -1,0 -1,0 0,0 0,0 0,-1 0,0 0,-1 0,-1 0,0 0,0 0,-1 0,0 0,0 1,0 0,0 1,0 1,0l0 0c0,0 0,0 -1,0 0,0 0,0 0,0 0,0 0,0 0,1 0,0 0,0 0,1 0,0 0,0 0,1 0,0 0,0 1,0 0,0 0,0 1,0 0,0 0,0 0,0 0,0 0,0 0,-1 0,0 0,0 0,-1z"/>
   <polygon id="12" class="fil1" points="27,11 25,9 25,8 28,11 "/>
   <path id="13" class="fil1" d="M27 9c0,0 -1,-1 -1,-1 0,0 0,-1 0,-1 0,0 0,0 1,0 0,0 1,0 1,0 0,0 1,0 1,0 0,0 0,0 0,1 0,0 0,1 0,1 0,0 0,0 0,1 0,0 0,0 -1,0 0,0 -1,0 -1,0 0,0 0,0 -1,0zm0 0c0,0 1,0 1,0 0,0 1,0 1,0 0,0 0,0 0,-1 0,0 0,-1 0,-1 0,0 0,0 -1,0 0,0 0,0 -1,0 0,0 0,0 -1,0 0,0 0,0 0,1 0,0 0,1 1,1zm-1 -2l0 -1 0 0 0 1 0 0z"/>
   <polygon id="14" class="fil1" points="31,8 28,5 29,5 32,6 30,4 30,4 32,6 32,6 29,6 31,7 "/>
  </g>
 </g>
</svg>
