<svg id="Capa_1" data-name="Capa 1" xmlns="http://www.w3.org/2000/svg" xmlns:xlink="http://www.w3.org/1999/xlink" viewBox="0 0 42.58 48.25"><defs><style>.cls-1{fill:none;}.cls-2{clip-path:url(#clip-path);}.cls-3{fill:url(#Degradado_sin_nombre);}.cls-4{fill:#191923;}</style><clipPath id="clip-path"><rect class="cls-1" x="-1178.95" y="-919.73" width="840.52" height="3751.75"/></clipPath><linearGradient id="Degradado_sin_nombre" x1="-1178.95" y1="2832.02" x2="-1177.95" y2="2832.02" gradientTransform="matrix(0, 3247.26, 3247.26, 0, -9197054.41, 3827688.53)" gradientUnits="userSpaceOnUse"><stop offset="0" stop-color="#ecedef"/><stop offset="0" stop-color="#ecedef"/><stop offset="1" stop-color="#caccd2"/></linearGradient></defs><title>NORWEB</title><g class="cls-2"><rect class="cls-3" x="-2382.3" y="-667.47" width="3247.23" height="3247.23" transform="translate(-898.31 -256.43) rotate(-45)"/></g><path class="cls-4" d="M14.45,10.89V7.94A1.83,1.83,0,0,1,16.4,6c2,0,3.9,0,5.85,0a1.82,1.82,0,0,1,1.95,2v5.85a1.82,1.82,0,0,1-1.93,1.94H16.39a1.83,1.83,0,0,1-1.94-1.94v-2.9m8.13,0V8.61c0-1,0-1-1-1-.46,0-.59.14-.59.59s0,1,0,1.56c0,.21,0,.3-.28.3-.89,0-1.79,0-2.69,0-.23,0-.29-.08-.28-.29,0-.4,0-.8,0-1.2,0-.94,0-1-.95-1-.57,0-.69.11-.69.68v4.79c0,1,0,1.06,1,1,.45,0,.59-.14.59-.59s0-1,0-1.56c0-.2,0-.3.28-.3h2.69c.23,0,.28.09.28.3,0,.39,0,.77,0,1.16,0,1,0,1,1,1,.52,0,.65-.13.65-.64V10.86"/><path class="cls-4" d="M8.32,43.2H7.57l0-33H8c1.54,0,3.09,0,4.68,0q1.38,0,2.73.06l0,.75c-.9,0-1.81-.05-2.72-.06-1.46,0-2.89,0-4.29,0Z"/><path class="cls-4" d="M30.8,43.2c-.18-10.64-.18-21.61-.18-32.23-3.86,0-5.75.08-6.67,0v0l-.49,0V11c-.39-.05-.4-.14-.41-.28s.11-.36.41-.4h0l.47,0v0L31,10.22h.38v.38c0,10.74,0,21.84.18,32.6Z"/><path class="cls-4" d="M16.1,24.23H9.65V17.78H16.1Zm-4.45-2H14.1V19.78H11.65Z"/><path class="cls-4" d="M29.06,24.23H22.61V17.78h6.45Zm-4.45-2h2.45V19.78H24.61Z"/><path class="cls-4" d="M22.84,24.23H16.4V17.78h6.44Zm-4.44-2h2.44V19.78H18.4Z"/><path class="cls-4" d="M16.1,30.55H9.65V24.11H16.1Zm-4.45-2H14.1V26.11H11.65Z"/><path class="cls-4" d="M29.06,30.55H22.61V24.11h6.45Zm-4.45-2h2.45V26.11H24.61Z"/><path class="cls-4" d="M22.84,30.55H16.4V24.11h6.44Zm-4.44-2h2.44V26.11H18.4Z"/><path class="cls-4" d="M16.1,36.64H9.65V30.2H16.1Zm-4.45-2H14.1V32.2H11.65Z"/><path class="cls-4" d="M29.06,36.64H22.61V30.2h6.45Zm-4.45-2h2.45V32.2H24.61Z"/><path class="cls-4" d="M22.84,36.64H16.4V30.2h6.44Zm-4.44-2h2.44V32.2H18.4Z"/></svg>