<svg id="Capa_1" data-name="Capa 1" xmlns="http://www.w3.org/2000/svg" xmlns:xlink="http://www.w3.org/1999/xlink" viewBox="0 0 68.47 35.65"><defs><style>.cls-1{fill:none;}.cls-2{clip-path:url(#clip-path);}.cls-3{fill:url(#Degradado_sin_nombre);}.cls-4{fill:#191923;}</style><clipPath id="clip-path"><rect class="cls-1" x="-1390.5" y="-1060.53" width="840.52" height="3751.75"/></clipPath><linearGradient id="Degradado_sin_nombre" x1="-1390.5" y1="2691.22" x2="-1389.5" y2="2691.22" gradientTransform="matrix(0, 3247.26, 3247.26, 0, -8740067.98, 4514505.59)" gradientUnits="userSpaceOnUse"><stop offset="0" stop-color="#ecedef"/><stop offset="0" stop-color="#ecedef"/><stop offset="1" stop-color="#caccd2"/></linearGradient></defs><title>NORWEB</title><g class="cls-2"><rect class="cls-3" x="-2593.85" y="-808.27" width="3247.23" height="3247.23" transform="translate(-860.71 -447.25) rotate(-45)"/></g><path class="cls-4" d="M33.4,23.8H30.15v-1h3.51l0-6.59,1,0,0,7.61H33.4"/><path class="cls-4" d="M25.55,23.8v-.5c0-2.34,0-4.76-.09-7.1l1,0c.09,2.19.09,4.44.09,6.64,1.79,0,2.78,0,3.33,0v0h.27v.06c.42,0,.44.13.5.28l0,.16c0,.21-.09.45-.51.5h-.27l-3.83,0Zm4.34-.42-.19.06Z"/><path class="cls-4" d="M54.18,23.8H51.06v-1h3.51l0-6.62h1l0,7.61h-1.4"/><path class="cls-4" d="M46.46,23.8v-.5c0-2.34,0-4.76-.1-7.1l1,0c.1,2.19.1,4.44.1,6.64,1.79,0,2.78,0,3.33,0v0h.26v0c.41.05.44.14.5.29l0,.16c0,.37-.26.47-.52.49H50.8L47,23.8Zm4.34-.43-.19.07Z"/><path class="cls-4" d="M43.79,25.14H40.54V23.7l1.48,0h2l0-9.33h1l0,10.74H43.79"/><path class="cls-4" d="M36,25.14v-.71c0-3.29,0-6.7-.1-10l1-.06c.09,3.09.09,6.27.1,9.35,1.86,0,2.82,0,3.32,0v0h.27v0c.28,0,.32.09.38.17l.14.21v.29c0,.52-.25.66-.51.69h-.27l-3.83,0Z"/><polygon class="cls-4" points="36.1 18.33 29.87 13.03 24.06 18.32 23.39 17.58 29.84 11.69 36.75 17.57 36.1 18.33"/><polygon class="cls-4" points="46.49 16.17 40.26 10.87 34.45 16.16 33.78 15.42 40.24 9.53 47.14 15.41 46.49 16.17"/><polygon class="cls-4" points="57.01 18.42 50.78 13.12 44.97 18.41 44.3 17.67 50.75 11.78 57.66 17.66 57.01 18.42"/><rect class="cls-4" x="28.64" y="19.74" width="2.74" height="3.56"/><rect class="cls-4" x="39.2" y="18.98" width="2.74" height="4.57"/><rect class="cls-4" x="49.71" y="19.73" width="2.74" height="3.56"/><path class="cls-4" d="M68.47,29.33H13.3L24,23.18l29.25,0ZM17,28.33H63.29L52.92,24.18H24.22Z"/></svg>