<svg id="Capa_1" data-name="Capa 1" xmlns="http://www.w3.org/2000/svg" xmlns:xlink="http://www.w3.org/1999/xlink" viewBox="0 0 44.52 43.2"><defs><style>.cls-1{fill:none;}.cls-2{clip-path:url(#clip-path);}.cls-3{fill:url(#Degradado_sin_nombre);}.cls-4{fill:#191923;}</style><clipPath id="clip-path"><rect class="cls-1" x="-1058.7" y="-919.73" width="840.52" height="3751.75"/></clipPath><linearGradient id="Degradado_sin_nombre" x1="-1058.7" y1="2832.02" x2="-1057.7" y2="2832.02" gradientTransform="matrix(0, 3247.26, 3247.26, 0, -9196934.16, 3437207.21)" gradientUnits="userSpaceOnUse"><stop offset="0" stop-color="#ecedef"/><stop offset="0" stop-color="#ecedef"/><stop offset="1" stop-color="#caccd2"/></linearGradient></defs><title>NORWEB</title><g class="cls-2"><rect class="cls-3" x="-2262.05" y="-667.47" width="3247.23" height="3247.23" transform="translate(-863.09 -171.4) rotate(-45)"/></g><path class="cls-4" d="M22.3,37.57l.14,0a4.17,4.17,0,0,1-.85.27c-.39.11-.75.26-1.14.35-.21,0-.42.13-.64.19s-.23.21-.43.22a1.65,1.65,0,0,1-.59,0s-.08,0-.11,0c-.43.34-.75.37-1.14,0a.8.8,0,0,1-.17-1.1,1.06,1.06,0,0,1,.58-.39,2.68,2.68,0,0,0,.79-.32c.08-.06.17-.18.29,0s.12,0,.17,0a3.5,3.5,0,0,1,1.08-.35c.15,0,.15-.23.27-.2s.39-.36.66-.13c.22-.31.6-.18.87-.34a.65.65,0,0,1,.49,0c.23.06.29-.1.28-.23-.05-1.15,0-2.3,0-3.46a2.49,2.49,0,0,1,0-.61c.07-.31-.1-.34-.33-.34H17.08c-.22,0-.46,0-.61-.21,0,0-.07,0-.1-.05a1.1,1.1,0,0,1-.91-1.11,2.87,2.87,0,0,1,.11-1c.06-.21,0-.25-.18-.26a2.3,2.3,0,0,1-.89-.43,2.41,2.41,0,0,1-.78-.71,5.39,5.39,0,0,1-.58-1.18,6.53,6.53,0,0,1-.38-2.44,4.42,4.42,0,0,1,.06-1.15c.06-.24.11-.48.41-.52a.13.13,0,0,0,.09,0c.33-.4.63-.19.93,0a1.11,1.11,0,0,1,.39,1,3.4,3.4,0,0,0,0,1.49,4.79,4.79,0,0,0,.58,1.88c.09.19.26.18.39.26a.75.75,0,0,0,1.06-.3c.09-.15.18-.31.41-.28.05,0,.14-.11.18-.19a1,1,0,0,1,.7-.39c.14,0,.2-.12.3-.22s.45-.18.68-.24A4.78,4.78,0,0,1,20.2,25c.89,0,1.78,0,2.66,0a15,15,0,0,1,0-1.9H20.91A8,8,0,0,1,19.14,23c-.07,0-.2,0-.2-.06s-.05-.2-.18-.18-.28-.22-.46-.06c.09-.29-.37,0-.3-.3,0,0,0-.05-.06-.05-.52,0-.61-.45-.9-.7s-.08-.47-.37-.5c0,0,0-.07,0-.1a4.9,4.9,0,0,1-.32-2.16c.1-.76.16-1.54.2-2.31,0-.57.13-1.15.17-1.72s.09-1.12.17-1.67a1.86,1.86,0,0,1,.3-.79,3.59,3.59,0,0,1,.68-.86A5,5,0,0,1,19,10.81c.12-.06.31,0,.47-.08s.19,0,.19-.19.23-.11.35-.13a7.44,7.44,0,0,1,1.83-.2c1.84,0,3.69,0,5.54,0a1.05,1.05,0,0,1,.73.13c.26.22.6.16.85.32a2.89,2.89,0,0,1,1.25,1.22c.08.2.29.33.35.58a13.71,13.71,0,0,1,.33,2.3,4.4,4.4,0,0,0,.12.94,3.86,3.86,0,0,1,.05.61c.06.74.13,1.47.2,2.21a4.65,4.65,0,0,1-.13,2.16,3,3,0,0,1-1,1.49c-.16.11-.41.11-.43.38,0,0,0,0,0,0-.28-.05-.47.15-.69.27a2.81,2.81,0,0,1-1.28.24c-.87,0-1.74,0-2.61,0-.27,0-.35.09-.34.35q0,.68,0,1.35c0,.16.06.2.21.2.87,0,1.74,0,2.61,0,.41,0,.81.14,1.22.11,0,.12-.07.08-.13.14.23,0,.41.19.58.18s.36,0,.45.19c.45-.08.71.27,1,.52s.53.36.57.72c0,.05,0,.09.14.06s.28-.4.56-.22a.19.19,0,0,0,.07-.06c.08-.49.46-.86.52-1.36a9.72,9.72,0,0,0,.14-2.15,1,1,0,0,1,.36-1c.11-.07.31-.21.47-.18s.36,0,.56.14c.45.32.42.76.45,1.2a8.72,8.72,0,0,1-.1,1.91,4,4,0,0,1-.27.95,3.2,3.2,0,0,1-.44,1c-.22.26-.28.68-.58.78s-.33.36-.67.32-.48.38-.34.77a1.38,1.38,0,0,1-.16,1.4,3.41,3.41,0,0,1-.63.55,2.13,2.13,0,0,1-1.34.2c-1.62,0-3.25,0-4.88,0-.31,0-.36.09-.35.37,0,.95,0,1.9,0,2.85v1.07c0,.33.08.36.39.36a3.06,3.06,0,0,1,1.26.26c.15.07.42,0,.45.26,0,0,.09,0,.12,0s.25-.18.3.07c.32,0,.51.2.76.34s0-.18.13-.11.29,0,.31.2c0,0,.06.12.11.09.25-.14.43.13.67.11a.12.12,0,0,1,.16.1s.05.12.1.08c.3-.25.47,0,.6.19a.86.86,0,0,1,.26.94c-.19.53-.64.6-1.1.66a.13.13,0,0,1-.13-.06c-.11-.37-.55-.11-.71-.39-.27.22-.43-.21-.55-.14s-.29,0-.36-.09-.28.06-.42-.1-.39-.11-.58-.19a4.48,4.48,0,0,0-1.35-.38A7.67,7.67,0,0,0,23,37.56a1.84,1.84,0,0,1-.7,0m1.42-16.3h3.41a6.47,6.47,0,0,0,.88,0,1.6,1.6,0,0,0,.8-.32,2.26,2.26,0,0,0,.48-.69,1,1,0,0,0,.2-.67c-.09-.62-.11-1.24-.18-1.86a15.08,15.08,0,0,1-.15-1.78c0-.58-.14-1.15-.15-1.73a2.56,2.56,0,0,0-.32-1.32A1.78,1.78,0,0,0,27.12,12H22.64a6.75,6.75,0,0,0-1.68.08.26.26,0,0,1-.22-.06c-.16-.1-.26,0-.35.1a.38.38,0,0,1-.46.14c0,.13-.24,0-.21.11s-.06.13-.15.16a1.37,1.37,0,0,0-.9,1,14.28,14.28,0,0,0-.16,1.86c-.07.81-.16,1.62-.23,2.43,0,.14,0,.28,0,.42a3.53,3.53,0,0,0,.06,2c.15.32.55.8.86.86a5.09,5.09,0,0,0,1,.13c1.17,0,2.35,0,3.52,0m-6.36,8.06c.13,0,.26,0,.39,0h12.1c.35,0,.43-.11.33-.45a4.34,4.34,0,0,0-.54-1.25c-.07-.14-.27-.16-.29-.34-.23.18-.17,0-.2-.15-.17.07-.2-.07-.27-.17s0,0,0,0c0,.17-.12.07-.17,0a1.77,1.77,0,0,0-.93-.18c-2.56-.05-5.12,0-7.69,0a4.71,4.71,0,0,0-.91.11,1.09,1.09,0,0,0-.67.25,1.1,1.1,0,0,1-.18.14c-.2.16-.46.31-.54.52a6.55,6.55,0,0,0-.39,1.46m10.41-8H19.85v0h7.92Zm-.4-11v0H21.21v0Zm-6,1.56v0h5.83v0Zm3.3,19.31h0v4.43h0Zm0-6.31h0V23.2h0Z"/><path class="cls-4" d="M26.61,13H21.69v0h4.92v0"/><path class="cls-4" d="M22.9,33.38V30.13h0v3.26h0"/><rect class="cls-4" x="20.77" y="24.79" width="2.12" height="0.01"/><path class="cls-4" d="M22.9,24.79V23.63a5,5,0,0,1,0,1.16h0"/></svg>