<svg id="Capa_1" data-name="Capa 1" xmlns="http://www.w3.org/2000/svg" xmlns:xlink="http://www.w3.org/1999/xlink" viewBox="0 0 54.81 53.49"><defs><style>.cls-1{fill:none;}.cls-2{clip-path:url(#clip-path);}.cls-3{fill:url(#Degradado_sin_nombre);}.cls-4{fill:#191923;}</style><clipPath id="clip-path"><rect class="cls-1" x="-1066.24" y="-1187.58" width="840.52" height="3751.75"/></clipPath><linearGradient id="Degradado_sin_nombre" x1="-1066.24" y1="2564.17" x2="-1065.24" y2="2564.17" gradientTransform="matrix(0, 3247.26, 3247.26, 0, -8327193.02, 3461429.09)" gradientUnits="userSpaceOnUse"><stop offset="0" stop-color="#ecedef"/><stop offset="0" stop-color="#ecedef"/><stop offset="1" stop-color="#caccd2"/></linearGradient></defs><title>NORWEB</title><g class="cls-2"><rect class="cls-3" x="-2269.59" y="-935.31" width="3247.23" height="3247.23" transform="translate(-675.9 -255.18) rotate(-45)"/></g><path class="cls-4" d="M25.94,9.05h2.93a3,3,0,0,0,1.26.2A18.91,18.91,0,1,1,19.09,45l-.06,0A19.57,19.57,0,0,1,8.49,28.65C8.15,19.2,15.27,11.91,21.83,9.89c1.35-.42,2.75-.55,4.11-.84m5.29,28.09a5.34,5.34,0,0,0,4.06-1.31c1.62-1.47,1.66-2.87.12-4.41a8,8,0,0,0-1.06-.87c-1.71-1.18-2.41-1.14-4,.17-1,.83-1.59,1-2.46.31A18.49,18.49,0,0,1,24,27.17,1.64,1.64,0,0,1,24.1,25c.25-.31.52-.61.8-.9a1.52,1.52,0,0,0,.41-1.65,6.55,6.55,0,0,0-2.68-3.56,1.91,1.91,0,0,0-1.73-.26,4.15,4.15,0,0,0-2.89,3,7.09,7.09,0,0,0,.58,4.69,21,21,0,0,0,7.62,8.77,10.79,10.79,0,0,0,5,2.07"/></svg>