<svg id="Capa_1" data-name="Capa 1" xmlns="http://www.w3.org/2000/svg" xmlns:xlink="http://www.w3.org/1999/xlink" viewBox="0 0 54.93 58.42"><defs><style>.cls-1{fill:none;}.cls-2{clip-path:url(#clip-path);}.cls-3{fill:url(#Degradado_sin_nombre);}.cls-4{fill:#191923;}</style><clipPath id="clip-path"><rect class="cls-1" x="-1173.75" y="-1052.08" width="840.52" height="3751.75"/></clipPath><linearGradient id="Degradado_sin_nombre" x1="-1173.75" y1="2699.67" x2="-1172.75" y2="2699.67" gradientTransform="matrix(0, 3247.26, 3247.26, 0, -8767290.78, 3810683.53)" gradientUnits="userSpaceOnUse"><stop offset="0" stop-color="#ecedef"/><stop offset="0" stop-color="#ecedef"/><stop offset="1" stop-color="#caccd2"/></linearGradient></defs><title>NORWEB</title><g class="cls-2"><rect class="cls-3" x="-2377.11" y="-799.82" width="3247.23" height="3247.23" transform="translate(-803.2 -291.52) rotate(-45)"/></g><path class="cls-4" d="M10,46.43H9l0-26.69h.5c1.53,0,3.09,0,4.68,0L17,19.8l0,1-2.72-.05c-1.4,0-2.79,0-4.16,0Z"/><path class="cls-4" d="M24.18,46.44C24,38,24,29.21,24,20.74c-3.86,0-5.67.06-6.54.05H17v0c-.31,0-.34-.06-.4-.11l-.15-.15V20.3c0-.35.2-.46.54-.49h.48c1.22,0,4.5,0,7.06-.06H25v.51c0,8.62,0,17.54.18,26.18Z"/><path class="cls-4" d="M16.31,26.59H10.86V22h5.45Zm-4.45-1h3.45V23H11.86Z"/><path class="cls-4" d="M23.05,26.59H17.6V22h5.45Zm-4.45-1h3.45V23H18.6Z"/><path class="cls-4" d="M16.31,31.67H10.86V27.1h5.45Zm-4.45-1h3.45V28.1H11.86Z"/><path class="cls-4" d="M23.05,31.67H17.6V27.1h5.45Zm-4.45-1h3.45V28.1H18.6Z"/><path class="cls-4" d="M16.31,36.56H10.86V32h5.45Zm-4.45-1h3.45V33H11.86Z"/><path class="cls-4" d="M23.05,36.56H17.6V32h5.45Zm-4.45-1h3.45V33H18.6Z"/><path class="cls-4" d="M21.3,20.24h-1l.05-11.78h5.17l2.73,0v1l-2.72,0H21.35Z"/><path class="cls-4" d="M35.47,46.44c-.18-12.21-.18-24.79-.18-37-4.15.07-5.93.1-6.72.07l-.3,0v0c-.31,0-.35-.06-.41-.11l-.15-.15V9.05c0-.35.19-.46.54-.5h0l.46,0v0c.79,0,2.72,0,7.06-.1h.51V9c0,12.34,0,25.1.18,37.47Z"/><rect class="cls-4" x="22.65" y="11.24" width="4.45" height="3.57"/><rect class="cls-4" x="29.39" y="11.24" width="4.45" height="3.57"/><rect class="cls-4" x="22.65" y="16.32" width="4.45" height="3.57"/><path class="cls-4" d="M24.57,21.21a1.09,1.09,0,0,1,0,.18v3.39h2.17V21.21Z"/><rect class="cls-4" x="29.39" y="16.32" width="4.45" height="3.57"/><rect class="cls-4" x="29.39" y="21.21" width="4.45" height="3.57"/><path class="cls-4" d="M24.76,26.1c0,.06,0,.12,0,.18v3.39h2.16V26.1Z"/><rect class="cls-4" x="29.58" y="26.1" width="4.45" height="3.57"/><path class="cls-4" d="M34.51,46.43H47.77V27.88H34.51Zm6.21-8.91H37.15V34h3.57Zm0-4.56H37.15V29.39h3.57Zm4.75,4.56H41.89V34h3.58Zm0-4.56H41.89V29.39h3.58Z"/></svg>