<svg id="Capa_1" data-name="Capa 1" xmlns="http://www.w3.org/2000/svg" xmlns:xlink="http://www.w3.org/1999/xlink" viewBox="0 0 54.81 43.2"><defs><style>.cls-1{fill:none;}.cls-2{clip-path:url(#clip-path);}.cls-3{fill:url(#Degradado_sin_nombre);}.cls-4{fill:#327a22;}</style><clipPath id="clip-path"><rect class="cls-1" x="-1066.24" y="-1249.43" width="840.52" height="3751.75"/></clipPath><linearGradient id="Degradado_sin_nombre" x1="-1066.24" y1="2502.32" x2="-1065.24" y2="2502.32" gradientTransform="matrix(0, 3247.26, 3247.26, 0, -8126334.46, 3461367.23)" gradientUnits="userSpaceOnUse"><stop offset="0" stop-color="#ecedef"/><stop offset="0" stop-color="#ecedef"/><stop offset="1" stop-color="#caccd2"/></linearGradient></defs><title>NORWEB</title><g class="cls-2"><rect class="cls-3" x="-2269.59" y="-997.17" width="3247.23" height="3247.23" transform="translate(-632.17 -273.3) rotate(-45)"/></g><path class="cls-4" d="M25.09,0H28a3,3,0,0,0,1.26.2,18.92,18.92,0,1,1-11,35.71,1.94,1.94,0,0,0-1.75-.08c-1,.41-1.53.58-1.63.63a53.77,53.77,0,0,1-6.65,2.3c1.12-5.41,1.84-8.71,2-9.15a1.29,1.29,0,0,0,.11-.66,1.19,1.19,0,0,0-.18-.53,18.52,18.52,0,0,1-2.54-8.83A18.91,18.91,0,0,1,21,.83C22.32.42,23.72.28,25.09,0m5.28,28.09a5.34,5.34,0,0,0,4.06-1.31c1.62-1.47,1.66-2.88.12-4.41a8,8,0,0,0-1.06-.87c-1.71-1.18-2.41-1.15-4,.17-1,.83-1.59.94-2.46.31a18.3,18.3,0,0,1-3.89-3.87,1.63,1.63,0,0,1,.07-2.2A11.42,11.42,0,0,1,24,15a1.52,1.52,0,0,0,.41-1.65A6.51,6.51,0,0,0,21.77,9.8a1.86,1.86,0,0,0-1.72-.26,4.13,4.13,0,0,0-2.9,3,7.06,7.06,0,0,0,.58,4.68A20.83,20.83,0,0,0,25.35,26a10.81,10.81,0,0,0,5,2.08"/></svg>