<svg xmlns="http://www.w3.org/2000/svg" id="Capa_1" data-name="Capa 1" viewBox="0 0 46.63 38.04"><defs><style>.cls-1{fill:#000}</style></defs><title>elementos</title><path d="M21.52 30.56l-8-.24a12.29 12.29 0 0 1-2.34-.3 4.16 4.16 0 0 1-3-2.52 11.62 11.62 0 0 1-.78-3.82 67.91 67.91 0 0 1 .13-11.93A9.32 9.32 0 0 1 8 9.92a4.6 4.6 0 0 1 4.33-3.42 155.65 155.65 0 0 1 20.26-.21c.75 0 1.51.09 2.25.2a4.23 4.23 0 0 1 3.38 2.59 8.81 8.81 0 0 1 .69 2.77 67.46 67.46 0 0 1 0 12.71 10.13 10.13 0 0 1-.5 2.31 4.54 4.54 0 0 1-4.17 3.23c-3.9.35-7.81.47-12.73.46m1.79-1.11c3.88 0 7.42-.06 11-.34a3.34 3.34 0 0 0 3.06-2.46 10.22 10.22 0 0 0 .48-2.26A67.18 67.18 0 0 0 38 15a18.51 18.51 0 0 0-.64-4.85 3.26 3.26 0 0 0-2.89-2.56c-1.21-.15-2.42-.18-3.63-.23a171.32 171.32 0 0 0-18.55.18A3.39 3.39 0 0 0 9 10.22a9.2 9.2 0 0 0-.4 1.88 65.55 65.55 0 0 0-.07 11.72A11.74 11.74 0 0 0 9 26.58a3.23 3.23 0 0 0 2.65 2.36 15.25 15.25 0 0 0 2 .24c3.32.15 6.64.25 9.63.27" class="cls-1"/><path d="M17.6 18.32v-5.5c0-.82.38-1 1.08-.64l9.65 5.64c.69.4.69.87 0 1.26l-9.63 5.36c-.73.41-1.1.18-1.1-.67v-5.45m9.47.07l-8-4.69c-.52-.3-.34.19-.34.36v8.48c0 .59 0 .6.52.31l7.45-4.14a.67.67 0 0 0 .38-.32" class="cls-1"/></svg>