<svg id="Capa_1" data-name="Capa 1" xmlns="http://www.w3.org/2000/svg" viewBox="0 0 1031.79 1344.73"><defs><style>.cls-1,.cls-2,.cls-5{fill:none;stroke-miterlimit:10}.cls-1,.cls-2{stroke:#ffa300}.cls-1{stroke-width:4px}.cls-3{fill:#ffa300}.cls-4{fill:#fff}.cls-5{stroke:#fff}</style></defs><title>vista lago edificio</title><path class="cls-1" d="M226.27 147.62c4.11-1.37 139.9-41.15 139.9-41.15V1166.7l-31.55-5.49v-109.73l-108.35-17.83zm139.9-41.15l24.68 20.58v21.94m-12.34 45.26l72.69-17.83v-43.1l-72.69 19.79v41.14z"/><path class="cls-2" d="M451.2 133.32l30.18 30.47V1046l-30.18 15.09V176.42"/><path class="cls-1" d="M378.51 194.25l12.34 9.6 60.35-15.08m-60.35 820.76V203.85m60.35 857.24l-85.03-13.72m115.21-1.37l68.58 8.23V148.99l-68.58 14.8m272.94 151.16l32.92 36.73V896.5l-48.01 32.91M549.96 148.99l49.37 45.26h21.95l41.14 35.66h35.67l41.14 45.27v654.23l-162.92 107.44-26.35 17.38m24.68-865.46l1.67 848.08"/><path class="cls-2" d="M226.26 1033.65v13.72l139.91 26.06m-117.96 63.09v-82.29"/><path class="cls-1" d="M763.23 913v134.41l-180.36 145.35v-97.38l-101.49-13.72v85l-103.18-17.59"/><circle class="cls-3" cx="390.26" cy="1008.21" r="9.16"/><circle class="cls-3" cx="756.9" cy="317.9" r="9.16"/><circle class="cls-4" cx="844.17" cy="471.12" r="9.16"/><circle class="cls-4" cx="985.16" cy="471.12" r="4.58"/><circle class="cls-3" cx="583.8" cy="1095.38" r="9.16"/><circle class="cls-3" cx="383.89" cy="1149.69" r="9.16"/><circle class="cls-3" cx="248.21" cy="1136.52" r="9.16"/><circle class="cls-3" cx="657.04" cy="288.57" r="5.38"/><circle class="cls-3" cx="574.64" cy="188.77" r="5.38"/><circle class="cls-3" cx="204.62" cy="147.03" r="5.38"/><circle class="cls-3" cx="451.2" cy="188.87" r="5.38"/><circle class="cls-3" cx="378.51" cy="194.25" r="5.38"/><circle class="cls-3" cx="334.4" cy="1066.47" r="5.38"/><path class="cls-2" d="M657.04 288.57v694.67"/><path class="cls-5" d="M985.16 471.12H844.17"/><circle class="cls-4" cx="329.02" cy="1197.54" r="9.16"/><circle class="cls-4" cx="727.54" cy="1238.48" r="4.58"/><path class="cls-5" d="M727.54 1238.48H586.55l-257.53-40.94"/><circle class="cls-4" cx="265.19" cy="824.44" r="9.16"/><circle class="cls-4" cx="124.2" cy="824.44" r="4.58"/><path class="cls-5" d="M124.2 824.44h140.99"/><circle class="cls-4" cx="265.19" cy="314.95" r="9.16"/><circle class="cls-4" cx="124.2" cy="314.95" r="4.58"/><path class="cls-5" d="M124.2 314.95h140.99"/><path class="cls-2" d="M227.63 281.91l138.54-29.63v83.54l-138.54 15.53v-69.44z"/></svg>