<svg id="Capa_1" data-name="Capa 1" xmlns="http://www.w3.org/2000/svg" viewBox="0 0 403.69 334.9"><defs><style>.cls-1{fill:#262626}</style></defs><title>vista lago</title><path class="cls-1" d="M256.66 24.19v219.89h-28a44.56 44.56 0 0 0 4.34-19.15 43.64 43.64 0 0 0-13-31.33 43.45 43.45 0 0 0-4.28-3.61c-7.75-7.55-10.63-18.37-10.86-30.43v-.88c0-10.2 1.32-19.56 6.93-26.87.81-.91 1.59-1.83 2.35-2.79a70.31 70.31 0 0 0 14.94-43.71c0-26.8-14.55-49.95-35.65-60.91v-.14z"/><path class="cls-1" d="M235.17 244.4h-66.68V23.91h34.39v4.23h-30.16v212.02h62.45v4.24z"/><path class="cls-1" d="M197.49 48.51c-4.39 2.19-8.82 4.28-13.23 6.41L171 61.16l-1.39.66-.72-1.57a24.12 24.12 0 0 0-4.43-6.57 14.62 14.62 0 0 0-6-3.91 11.07 11.07 0 0 0-7.08.5 39.65 39.65 0 0 0-7.37 3.88l-.3-.3a20.21 20.21 0 0 1 6.28-6.38 12.7 12.7 0 0 1 9.52-1.88 14.19 14.19 0 0 1 8 5.49 30.89 30.89 0 0 1 4.39 8.05l-2.12-.91 13.78-5.13c4.61-1.66 9.21-3.36 13.84-5zm0 37.23c-4.39 2.19-8.82 4.28-13.23 6.41L171 98.39l-1.39.66-.72-1.57a24.27 24.27 0 0 0-4.43-6.57 14.62 14.62 0 0 0-6-3.91 11.07 11.07 0 0 0-7.08.5 39.65 39.65 0 0 0-7.37 3.88l-.3-.29a20.14 20.14 0 0 1 6.28-6.39 12.75 12.75 0 0 1 9.52-1.88 14.19 14.19 0 0 1 8 5.49 30.89 30.89 0 0 1 4.39 8l-2.12-.91 13.78-5.13c4.61-1.66 9.21-3.36 13.84-5zm0 37.26c-4.39 2.19-8.82 4.28-13.23 6.41L171 135.62l-1.39.66-.72-1.56a24.17 24.17 0 0 0-4.43-6.58 14.62 14.62 0 0 0-6-3.91 11.14 11.14 0 0 0-7.08.5 39.12 39.12 0 0 0-7.37 3.89l-.3-.3a20.14 20.14 0 0 1 6.28-6.39 12.75 12.75 0 0 1 9.52-1.88 14.19 14.19 0 0 1 8 5.49 30.89 30.89 0 0 1 4.39 8l-2.12-.91 13.78-5.13c4.61-1.66 9.21-3.36 13.84-5zM364.9 293.17c0 3.39-.19 7.7-2.22 11a9.54 9.54 0 0 1-16.58-.43c-1.59-3-2-6.44-2-10.61 0-3.11.14-7.22 2.27-10.51a10 10 0 0 1 16.48.38c1.84 3.11 2 6.83 2 10.13m7.42.72c0-10.46-7-17.35-17.79-17.35-11.1 0-17.83 7.17-17.83 17.35s6.79 17 17.78 17c11.2.01 17.89-7.03 17.89-16.96zm-41.58 5.33v-2.28c-1.69.15-5.9.15-7.8.15-2.82 0-7.32 0-9.93-.15v2.28h7v4.89a3.47 3.47 0 0 1-1.9 3.45 8.68 8.68 0 0 1-4.35 1c-4.18 0-8.34-1.4-10.72-4.41-2.08-2.67-2.7-6.12-2.7-10.52 0-5.43 1-8.23 2.76-10.61s5.66-4.22 10.31-4.22c5.2 0 9.8 3.68 10.86 9.84.15.92.19 1 1.31 1s1.31-.1 1.31-1.36V277.9c0-.92 0-1.36-.88-1.36-.43 0-.54.1-.92.44l-3.2 2.86a14.78 14.78 0 0 0-9.55-3.3c-11.91 0-19.42 7.13-19.42 17.16 0 9.64 7 17.16 19.52 17.16 1.61 0 6.59-.1 9-3.11a15.58 15.58 0 0 0 4.74 2.57c.69 0 .69-.63.69-1.36v-9.74zm-57.14-.53h-11l5.52-13.46zm15.7 11.63V308h-4.7l-12.4-30.29a1.68 1.68 0 0 0-1.94-1.25c-1.36 0-1.55.39-1.89 1.25l-12 29.18c-.3.73-.44 1.11-4.12 1.11h-1v2.28l5.66-.15c1.9 0 4.62 0 6.4.15V308s-4.31 0-4.31-.63l.19-.58 2.43-5.86h13l2.91 7.07h-4.6v2.28c1.84-.15 6.44-.15 8.51-.15s6.22.04 7.91.19zM246.86 297h-2.27c-.4 3.35-1.22 11-9.89 11h-5v-28.64h6.54v-2.28c-2.13.15-7.42.15-9.79.15-2.13 0-7 0-8.86-.15v2.28h5.23V308h-5.22v2.28h27.76zm-67.46 1.65h-11.05l5.53-13.46zm15.7 11.63V308h-4.7L178 277.75a1.68 1.68 0 0 0-1.94-1.25c-1.36 0-1.55.39-1.89 1.25l-12 29.18c-.3.73-.44 1.11-4.12 1.11h-1v2.28l5.66-.15c1.9 0 4.62 0 6.4.15V308s-4.31 0-4.31-.63l.19-.58 2.43-5.86h13l2.92 7.07h-4.61v2.28c1.84-.15 6.45-.15 8.52-.15s6.16.04 7.85.19zm-37.49-21l-1-11.67H124l-1 11.67h2.28c.44-5.48.92-9.39 7.9-9.39h3.74V308h-7.42v2.28c2.61-.15 8-.15 10.85-.15s8.24 0 10.85.15V308h-7.4v-28.1h3.68c6.92 0 7.4 3.87 7.9 9.39zm-39.84 11.2a10.48 10.48 0 0 0-8.33-10.24l-7-1.5c-1.94-.43-4.66-2.08-4.66-5 0-2.07 1.36-5.08 6.21-5.08 3.87 0 8.76 1.65 9.88 8.24.19 1.16.19 1.25 1.2 1.25 1.17 0 1.17-.23 1.17-1.36v-8.89c0-.92 0-1.36-.86-1.36-.4 0-.44.06-1 .54l-2.18 2.13a13 13 0 0 0-8.29-2.67c-7.36 0-10.85 4.66-10.85 9.74a9.38 9.38 0 0 0 2.61 6.44c2.38 2.38 4 2.73 9.32 3.89 4.25.92 5.08 1.06 6.15 2.08a5.66 5.66 0 0 1 1.94 4.21c0 2.34-1.27 5.68-6.31 5.68-3.68 0-11-1-11.43-8.19 0-.88 0-1.11-1.12-1.11s-1.16.29-1.16 1.4v8.82c0 .92 0 1.36.87 1.36.44 0 .53-.1.92-.44l2.24-2.23c3.18 2.38 7.7 2.67 9.68 2.67 8 0 11-5.48 11-10.37zm-29.4 9.83V308h-5.53v-28.64h5.53v-2.28c-2 .15-6.75.15-9 .15s-7 0-9-.15v2.28H76V308h-5.57v2.28c2-.15 6.74-.15 9-.15s6.94.04 8.94.19zm-20.86-31v-2.28l-5.46.15c-1.94 0-4.47 0-6.35-.15v2.28c.43 0 4.26 0 4.26.58a2.12 2.12 0 0 1-.19.57L50 302.58l-10.34-23.22h4.56v-2.28c-1.86.15-6.5.15-8.59.15-1.88 0-6 0-7.65-.15v2.28h4.45l13.38 30.08c.39.88.58 1.27 1.94 1.27a1.7 1.7 0 0 0 1.93-1.16l12.9-29.13c.29-.63.48-1.06 4-1.06z"/></svg>