<svg id="Capa_1" data-name="Capa 1" xmlns="http://www.w3.org/2000/svg" viewBox="0 0 265.03 71.04"><defs><style>.cls-1{fill:#fff;}</style></defs><title>elementos</title><path class="cls-1" d="M253.84,55.39c-.41-.15-.37.31-.54.45a2.75,2.75,0,0,1-1.91.85,9.53,9.53,0,0,0-1.31,0c-.49.06-.8-.38-1.27-.37-.11,0-.21-1-.09-1.13s.39,0,.58.1a1.12,1.12,0,0,0,.42.09c.23,0,.53,0,.69.07.6.45,1.11,0,1.65-.11s.65-.91.36-1.33a2.8,2.8,0,0,0-1.28-.91,4.13,4.13,0,0,1-2-1.27,2.12,2.12,0,0,1,1.18-3.3,6,6,0,0,1,2.6.07c.28,0,.52.14.58.4a.77.77,0,0,1-.14.76.66.66,0,0,1-.77,0,2.75,2.75,0,0,0-1.85-.14,1,1,0,0,0-.7.86,1.11,1.11,0,0,0,.6,1,5,5,0,0,0,1.12.59,3.2,3.2,0,0,1,1.85,1.37s.13.06.19.08Z"/><path class="cls-1" d="M67.27,42.43c.39-.22.42-.55.52-.91a9.35,9.35,0,0,1,.56-2.09.23.23,0,0,0,.05-.15,5,5,0,0,1,.45-2c.15-.61.07-1.32.53-1.85a.17.17,0,0,0,0-.1,4.83,4.83,0,0,1,.44-2,4.59,4.59,0,0,1,.53-1.9.12.12,0,0,0,0-.1,5.59,5.59,0,0,1,.44-2,5.1,5.1,0,0,1,.53-1.9.24.24,0,0,0,0-.16,5.72,5.72,0,0,1,.45-2.09,13.57,13.57,0,0,1,.83-2.5A9.35,9.35,0,0,1,76,18.9a6.57,6.57,0,0,1,1.84-.84c3.28-1.07,6.64-.42,10-.6.37,0,.51.32.35.77-.28.78-.37,1.61-.64,2.38a12.07,12.07,0,0,1-.53,2,4.87,4.87,0,0,0-.31,1.33c-.14.63-.33,1.25-.47,1.87a7.6,7.6,0,0,1-.57,2.1.24.24,0,0,0,0,.16,5.18,5.18,0,0,1-.46,2.08c-.2.59,0,1.31-.52,1.81a.2.2,0,0,0,0,.16,5,5,0,0,1-.46,2.07c-.19.59,0,1.31-.53,1.8,0,0,0,.07,0,.11a5,5,0,0,1-.44,2c-.16.6-.08,1.31-.52,1.84a.24.24,0,0,0,0,.16,4.88,4.88,0,0,1-.45,2.07c-.17.6,0,1.33-.53,1.84a.31.31,0,0,0,0,.17,5.28,5.28,0,0,1-.44,2.08c-.3,1.06-.47,2.15-.84,3.2a19.33,19.33,0,0,1-.72,1.92,8.45,8.45,0,0,1-2.79,3.2,18.81,18.81,0,0,1-2.54,1.27l-.11,0c-1,0-1.91.38-2.92.35-2.17-.06-4.35,0-6.52,0-.36,0-.49-.07-.56-.47-.25-1.35-.22-2.75-.57-4.08a.5.5,0,0,1,0-.17A26.58,26.58,0,0,0,63,47.22a17.25,17.25,0,0,0-.5-3.58.3.3,0,0,1,0-.16A20.87,20.87,0,0,0,62,39.37a17.73,17.73,0,0,0-.51-3.7,1.38,1.38,0,0,1,0-.5c.06-1.33-.46-2.61-.4-4a1.38,1.38,0,0,0-.1-.39,2.67,2.67,0,0,0-.43,1.08,19.3,19.3,0,0,1-.46,1.89,11.14,11.14,0,0,1-.53,2,6.87,6.87,0,0,0-.34,1.44c-.15.63-.32,1.29-.48,1.92a7.42,7.42,0,0,1-.54,2,.21.21,0,0,0-.05.15,4.7,4.7,0,0,1-.47,2.08c-.2.62-.09,1.3-.5,1.88a3.57,3.57,0,0,0-.31,1.36c-.13.64-.37,1.26-.47,1.92a9.78,9.78,0,0,1-.53,1.78A9.45,9.45,0,0,1,55.07,52a8.88,8.88,0,0,1-2.51,2.6A8.56,8.56,0,0,1,50,55.8a8.35,8.35,0,0,1-2.12.38c-2.44,0-4.87,0-7.31,0-.43,0-.53-.14-.6-.56-.19-1.06-.19-2.15-.4-3.2a23.81,23.81,0,0,0-.31-2.59c-.37-1.12-.07-2.31-.51-3.41-.14-.34,0-.78-.09-1.17-.26-1.36-.25-2.77-.57-4.13-.09-.41,0-.86-.1-1.28-.28-1.35-.23-2.74-.57-4.08a4.25,4.25,0,0,1-.08-1c0-1.32-.5-2.59-.38-3.93h-.14a4.27,4.27,0,0,0-.43,1,32,32,0,0,1-.8,3.35c-.26,1.09-.52,2.18-.83,3.27-.17.61-.32,1.25-.46,1.88a11.82,11.82,0,0,1-.55,2.08,6.76,6.76,0,0,0-.32,1.4c-.13.63-.32,1.25-.48,1.87a14.36,14.36,0,0,1-.51,2,8.71,8.71,0,0,0-.4,1.6,7.66,7.66,0,0,1-1.13,2.69,7.15,7.15,0,0,1-2.24,2.34A10.76,10.76,0,0,1,25,56c-2.29.44-4.58.11-6.87.23-.56,0-1.12,0-1.69,0s-.64-.3-.38-.67a1.66,1.66,0,0,0,.22-.67,13.69,13.69,0,0,1,.58-2.2.56.56,0,0,0,.06-.21A19,19,0,0,1,17.68,49c.27-1.07.52-2.16.84-3.23.19-.63.34-1.32.49-2A7.11,7.11,0,0,1,19.49,42a7.11,7.11,0,0,0,.34-1.45c.17-.64.37-1.27.48-1.93a12.47,12.47,0,0,1,.53-2c.16-.48.2-1,.33-1.46.16-.64.37-1.28.47-1.94a14.34,14.34,0,0,1,.52-1.92c.15-.48.22-1,.34-1.45.15-.65.32-1.3.48-1.94.28-1.1.52-2.22.85-3.31a14.1,14.1,0,0,1,.72-2.07A9.19,9.19,0,0,1,27,19.43a8.21,8.21,0,0,1,3.59-1.69c2.93-.53,5.89-.21,8.83-.32.41,0,.49.12.62.52.31.95.1,1.95.36,2.86s.08,1.77.32,2.59.09,1.91.35,2.8.08,1.73.32,2.52c.28,1,.08,2,.36,2.85s.06,1.72.3,2.52c.29,1,.09,2,.36,2.85s.07,1.76.32,2.57a12.88,12.88,0,0,1,.31,2.75c0,.09,0,.2.13.22s.12-.06.17-.12a1.83,1.83,0,0,0,.36-.83,9.3,9.3,0,0,1,.57-2.19.73.73,0,0,0,.06-.21A25.37,25.37,0,0,1,45,36.51c.13-.67.33-1.32.48-2a8,8,0,0,1,.5-1.9,7,7,0,0,0,.33-1.44c.15-.66.35-1.32.5-2a16.06,16.06,0,0,1,.49-1.9,9.53,9.53,0,0,0,.45-1.88,9.63,9.63,0,0,1,.44-1.72,9.17,9.17,0,0,1,1.71-3.06,9.78,9.78,0,0,1,2.64-2.13c.33-.2.84-.3,1.18-.49.7-.39,1.52-.09,2.18-.53.12-.08.32,0,.49,0,2.42,0,4.84,0,7.25,0,.39,0,.45.16.56.48.3.88.08,1.82.35,2.65.37,1.14,0,2.37.52,3.47a.2.2,0,0,1,0,.11,18.55,18.55,0,0,0,.47,4.21c.19,1.22,0,2.51.52,3.68a.37.37,0,0,1,0,.11,18.59,18.59,0,0,0,.46,4.15A19.58,19.58,0,0,0,67,40a5.77,5.77,0,0,1,.1,1.62,1.3,1.3,0,0,0,.16.8"/><path class="cls-1" d="M181.45,25.5a.69.69,0,0,0-.16.51,31.27,31.27,0,0,1-.59,3.21c-.12.73-.27,1.45-.45,2.15a11.29,11.29,0,0,1-.52,2.23.56.56,0,0,0-.06.21,9.2,9.2,0,0,1-.42,2.26c-.16,1-.48,2-.65,3-.07.37-.21.74-.29,1.13s-.44.46-.76.46c-2.07,0-4.14,0-6.2,0-.56,0-.67-.52-.76-.92-.28-1.25-.62-2.49-.91-3.74-.15-.64-.31-1.29-.47-1.93a14.47,14.47,0,0,0-.49-1.91,6.3,6.3,0,0,1-.35-1.5c-.11-.65-.3-1.3-.47-1.92-.29-1-.5-2.1-.8-3.14-.17-.6-.3-1.25-.46-1.86a9.81,9.81,0,0,0-.52-2,6,6,0,0,1-.31-1.4,9.82,9.82,0,0,1-.44-1.93,1.59,1.59,0,0,0-.06-.37c-.21-.63-.21-.63.49-.63,1.62,0,3.23,0,4.85,0,.38,0,.45.14.58.49.27.74.2,1.53.52,2.25a7.4,7.4,0,0,1,.31,1.57c.13.71.33,1.4.46,2.1a9.59,9.59,0,0,0,.52,2.24.51.51,0,0,1,.06.2,6.91,6.91,0,0,0,.44,2.31,5,5,0,0,0,.5,2,.14.14,0,0,1,0,.11c-.09.86.46,1.62.38,2.48a1.88,1.88,0,0,0,.46,1.13c.07-.07.13-.11.13-.15a9.56,9.56,0,0,1,.45-2.91,6.3,6.3,0,0,1,.51-2.29.26.26,0,0,0,0-.15,4.88,4.88,0,0,1,.45-2.28c.2-.62,0-1.34.5-1.86a.21.21,0,0,0,0-.16,5.41,5.41,0,0,1,.44-2.18c.15-.61.26-1.26.45-1.88a9,9,0,0,0,.45-2c0-.84.2-1,1-1,1.45,0,2.9,0,4.36,0,.49,0,.67.11.78.65a19.92,19.92,0,0,0,.5,2.13A9.83,9.83,0,0,1,185.4,22a20.82,20.82,0,0,0,.48,2.14,7.29,7.29,0,0,0,.47,1.92,4.32,4.32,0,0,1,.3,1.4c.11.76.3,1.52.48,2.25a10.61,10.61,0,0,0,.52,2.49,2.66,2.66,0,0,1,.08.81c0,.23,0,.47.06.7a.46.46,0,0,0,.38.41c.25,0,.19-.28.18-.43a11.7,11.7,0,0,1,.43-2.69c.15-1,.39-2,.62-3s.45-2,.66-3,.45-1.95.65-2.93.47-2,.68-3a10.1,10.1,0,0,0,.26-1.24c0-.26.17-.34.4-.34h5.39c.49,0,.32.38.25.59-.25.76-.38,1.56-.6,2.33-.32,1.08-.45,2.2-.84,3.27a9.81,9.81,0,0,0-.33,1.4c-.21,1.11-.52,2.2-.78,3.29s-.51,2.13-.82,3.19c-.17.6-.3,1.25-.45,1.86a10.8,10.8,0,0,1-.52,2,5.85,5.85,0,0,0-.31,1.39,13.9,13.9,0,0,0-.46,1.93c0,.52-.33,1-.36,1.55,0,.25-.4.44-.73.44-2.07,0-4.14,0-6.2,0a.76.76,0,0,1-.77-.76c-.13-1.27-.55-2.49-.76-3.75-.17-.94-.38-1.9-.63-2.82-.31-1.16-.5-2.34-.79-3.5a10,10,0,0,1-.43-2.38,9.89,9.89,0,0,0-.46-2"/><path class="cls-1" d="M92.5,28.9c0-3.63,0-7.26,0-10.89,0-.47.11-.61.6-.6q3.39,0,6.8,0a.85.85,0,0,1,.87.51c.48,1,.95,1.93,1.44,2.89s1.13,2.11,1.68,3.17,1,2,1.55,3,1,1.88,1.5,2.83a20.8,20.8,0,0,1,1.08,2.1,9.15,9.15,0,0,1,.66,1.33.13.13,0,0,0,.17.09c.09,0,.1-.09.1-.16a4.73,4.73,0,0,0,0-.65c-.37-4.67-.26-9.35-.27-14V18c0-.38.19-.54.59-.54,1.52,0,3,0,4.57,0,.4,0,.57.16.56.54V39.68c0,.82-.17,1-1,1h-6.37c-.82,0-1-.27-1.35-1-.47-.92-.94-1.84-1.42-2.76s-1-1.89-1.48-2.83c-.39-.73-.85-1.43-1.18-2.19-.23-.56-.54-1.07-.78-1.62-.32-.73-.73-1.43-1.1-2.14S99,26.73,98.59,26a5.87,5.87,0,0,1-.67-1.38c0-.08-.1-.1-.18-.09a.13.13,0,0,0-.11.16,11.24,11.24,0,0,0,.2,3.17,1.64,1.64,0,0,1,.07.54c0,3.84,0,7.69,0,11.54,0,.31-.07.47-.41.46-1.56,0-3.12,0-4.68,0-.44,0-.34-.28-.34-.51v-11Z"/><path class="cls-1" d="M129.52,17.11a9.22,9.22,0,0,1,2.08,0,12.15,12.15,0,0,1,2.36.52c.34.17.76.22,1.13.37a7.67,7.67,0,0,1,2.38,1.43A8,8,0,0,1,138.91,21c.32.53.62,1.07.91,1.62.42.78.49,1.65.85,2.44a.38.38,0,0,1,0,.1,23.29,23.29,0,0,1,.29,5.4,22.89,22.89,0,0,1-.63,3.32,10.57,10.57,0,0,1-1.1,2.43,9,9,0,0,1-2.8,2.88,10.69,10.69,0,0,1-1.86.91c-.55.22-1.17.16-1.67.51a.55.55,0,0,1-.26.06,25.65,25.65,0,0,1-5.81,0,9.72,9.72,0,0,1-3.73-1.44,9.43,9.43,0,0,1-2.62-2.49,9.92,9.92,0,0,1-1.24-2.53,16.85,16.85,0,0,1-.68-3.52,10,10,0,0,1-.13-2.32,23.56,23.56,0,0,1,.59-4.1,9.7,9.7,0,0,1,3-4.77,7.41,7.41,0,0,1,2.59-1.5c.83-.25,1.67-.43,2.49-.68a12.79,12.79,0,0,1,2.42-.21M125.17,29a7.93,7.93,0,0,0,1,4.92,3.42,3.42,0,0,0,2.77,1.73,16.32,16.32,0,0,0,1.85,0,2.86,2.86,0,0,0,1.47-.57,4.93,4.93,0,0,0,2-3.73,11.09,11.09,0,0,0,.1-1.52c0-2,.11-4.05-1.06-5.86a3.63,3.63,0,0,0-2.44-1.6,6.87,6.87,0,0,0-2.17,0,3,3,0,0,0-1.22.5c-1.62,1.05-2.09,2.69-2.26,4.47-.05.55,0,1.12,0,1.67"/><path class="cls-1" d="M233.12,29c0-3.63,0-7.26,0-10.89,0-.52.1-.72.68-.7,1.64.05,3.27,0,4.9,0,.49,0,.62.14.62.6,0,2.38,0,4.76,0,7.13,0,.65.26,1,.95,1,1.87,0,3.74,0,5.61,0,.69,0,.85-.16.85-.87,0-2.4,0-4.79,0-7.19,0-.49.14-.63.64-.63,1.69,0,3.38,0,5.06,0,.38,0,.5.09.49.48q0,11.06,0,22.1c0,.39-.13.52-.5.52-1.72,0-3.45,0-5.17,0-.41,0-.52-.16-.52-.55,0-2.7,0-5.41,0-8.11,0-.66-.14-.81-.79-.81h-5.77c-.63,0-.82.2-.82.85q0,3.93,0,7.84c0,.85-.06.92-.88.92h-4.63c-.7,0-.72,0-.72-.75V29Z"/><path class="cls-1" d="M145.22,29V18.13c0-.71,0-.71.71-.71,2.81,0,5.63-.06,8.44.06a10.4,10.4,0,0,1,2.81.5c.48.16,1,.31,1.5.49a5.06,5.06,0,0,1,1.86,1.34,6.25,6.25,0,0,1,1.33,2.29,8.29,8.29,0,0,1,.17,3.73,5.44,5.44,0,0,1-1.36,2.73,11,11,0,0,1-2.17,1.81c-.16.12-.22.12-.08.33.71,1.15,1.51,2.24,2.23,3.37.5.77,1,1.52,1.5,2.29.34.54.71,1.07,1.09,1.59a25.53,25.53,0,0,1,1.43,2.13c.19.32,0,.56-.38.59s-.69,0-1,0h-4.69a1.06,1.06,0,0,1-1-.65c-.66-1.2-1.37-2.37-2-3.56-.51-.88-1-1.76-1.51-2.64-.24-.42-.48-.83-.76-1.23a1.78,1.78,0,0,0-1.69-.33c-.2.12-.13.32-.13.49V40c0,.66-.06.72-.71.72H146c-.66,0-.76-.09-.76-.75V29m6.21-4.13c0,.33,0,.65,0,1,0,.52-.22,1.22.09,1.52s1.06.08,1.62.1a2.89,2.89,0,0,0,1.71-.58,2.55,2.55,0,0,0,.93-1.53,2.3,2.3,0,0,0-1.81-3,19.59,19.59,0,0,0-2.17-.08c-.28,0-.38.1-.37.39,0,.74,0,1.48,0,2.22"/><path class="cls-1" d="M228.58,37.16v2.18c0,.23-.09.34-.34.45-.48.21-1,.33-1.49.51a6.81,6.81,0,0,1-1.72.39,26.49,26.49,0,0,1-5.7,0,6.46,6.46,0,0,1-1.62-.46c-.53-.24-1.06-.45-1.58-.73a8.59,8.59,0,0,1-2.42-2,8.33,8.33,0,0,1-1.6-2.78,10.09,10.09,0,0,1-.74-3.44c0-.6-.19-1.19-.18-1.78a19.26,19.26,0,0,1,.27-3.4,12.1,12.1,0,0,1,1.88-4.67,8.74,8.74,0,0,1,2.4-2.41,11.28,11.28,0,0,1,1.95-1,22.49,22.49,0,0,1,2.49-.69,11.85,11.85,0,0,1,3.7-.19,14.07,14.07,0,0,1,2.21.34,22.86,22.86,0,0,1,2.94.95c.58.2.64.45.29.95a2.89,2.89,0,0,0-.31.88c-.23.71-.61,1.37-.78,2.1-.07.3-.33.52-.37.86,0,.15-.28.12-.44.1a11.82,11.82,0,0,1-2-.58,13.43,13.43,0,0,0-1.77-.43,8.56,8.56,0,0,0-1.68,0,3.77,3.77,0,0,0-2.77,1.44,5.65,5.65,0,0,0-1,2,11.66,11.66,0,0,0-.58,3.84,13.55,13.55,0,0,0,.56,3,4.47,4.47,0,0,0,1.39,2.25,3.15,3.15,0,0,0,1.69.83,5.56,5.56,0,0,0,1.81.23,22.71,22.71,0,0,0,2.69-.5c.75-.26,1.54-.42,2.29-.69.38-.14.6,0,.57.45,0,.69,0,1.38,0,2.07Z"/><path class="cls-1" d="M200.72,29V18.14c0-.72,0-.72.72-.72h4.95c.73,0,.74,0,.74.77q0,8.22,0,16.44c0,1.74,0,3.48,0,5.22,0,.57-.23.82-.82.82h-4.73c-.64,0-.86-.24-.86-.88Z"/><path class="cls-1" d="M183.36,50.58c-.25.23-.19.5-.19.74,0,1.55,0,3.09,0,4.63a.68.68,0,0,1-1,.66c-.21-.1-.21-.29-.21-.47,0-2.41,0-4.82,0-7.24,0-.26.13-.35.36-.35.42,0,.83,0,1.25,0s.49.47.6.78c.3.85.58,1.7.9,2.55a7.12,7.12,0,0,1,.39,1.21c.09.46.43.83.42,1.32,0,.06.1.22.16.16s.36-.11.39-.33a10,10,0,0,1,.74-2.22,10.81,10.81,0,0,1,.86-2.23c.16-.24.11-.56.25-.86s.44-.39.77-.39c1.31,0,1.31,0,1.31,1.3q0,3.08,0,6.16c0,.21.1.54-.19.61a2.12,2.12,0,0,1-1,0c-.19,0-.13-.35-.13-.54V51.53c0-.22,0-.43,0-.65s.1-.48-.16-.49-.09.32-.18.45c-.26.42-.25.93-.53,1.35a4,4,0,0,0-.36,1.08c-.21.77-.63,1.45-.77,2.24a4.26,4.26,0,0,1-.33.82c-.14.28-.47.32-.8.32s-.39-.17-.49-.39a23.86,23.86,0,0,1-.91-2.49c-.28-.8-.57-1.59-.88-2.38-.1-.25-.05-.54-.25-.81"/><path class="cls-1" d="M179.64,52.55c0,1.16,0,2.33,0,3.49,0,.44-.13.56-.61.64-1,.16-1.28-.51-1.66-1.12-.74-1.19-1.44-2.4-2.21-3.57a5.73,5.73,0,0,1-.75-1.3c0-.09-.06-.17-.17-.15s-.14.1-.14.2,0,.33,0,.49c0,1.6,0,3.19,0,4.79,0,.31.09.67-.46.64s-.8-.18-.8-.7c0-1.4,0-2.8,0-4.19,0-.89,0-1.78,0-2.67,0-.42.17-.56.54-.55s.58,0,.87,0a.6.6,0,0,1,.56.38c.4.78.91,1.51,1.39,2.26a14.57,14.57,0,0,1,.82,1.28c.29.64.81,1.14,1,1.81,0,.08.09.1.17.09a.15.15,0,0,0,.14-.14c0-.16,0-.32,0-.49,0-1.54,0-3.08,0-4.62,0-.61.34-.54.72-.58s.58.15.57.58c0,1.15,0,2.29,0,3.43"/><path class="cls-1" d="M145.43,50.53c-.19.46.09.78.09,1.14,0,1.46,0,2.91,0,4.36a.61.61,0,0,1-.61.67c-.48,0-.64-.15-.63-.61,0-2.36,0-4.72,0-7.08,0-.34.14-.39.45-.44,1-.16,1.48.31,1.88,1.15A21.86,21.86,0,0,0,148,52c.4.66.76,1.34,1.2,2a6.35,6.35,0,0,1,.43.78.78.78,0,0,0,.18-.69c0-1.65,0-3.3,0-5,0-.46.19-.53.55-.49s.75-.11.74.5c0,2.3,0,4.61,0,6.92a.62.62,0,0,1-.68.69,1.39,1.39,0,0,1-1.6-1c-.18-.42-.51-.76-.72-1.18a19.07,19.07,0,0,0-1.2-1.91,7.72,7.72,0,0,0-1.44-2"/><path class="cls-1" d="M96.08,50.62a1.63,1.63,0,0,1,.2,1c0,1.43,0,2.86,0,4.3,0,.68-.57.86-1.06.74-.32-.07-.22-.38-.22-.59,0-1.55,0-3.09,0-4.63,0-.82,0-1.64,0-2.45,0-.3.09-.45.4-.42.49.06,1.06-.21,1.44.32s.51.78.76,1.19c.37.6.74,1.22,1.11,1.83s.8,1.35,1.21,2c0,0,0,.05,0,.05.27,0,.2.54.48.46s.12-.41.13-.63c0-1.58,0-3.16,0-4.74,0-.36.07-.56.47-.5s.8-.14.8.5c0,2.32,0,4.65,0,7,0,.45-.18.65-.66.64a1.4,1.4,0,0,1-1.61-1,11.11,11.11,0,0,0-.75-1.22c-.28-.42-.56-.84-.82-1.27s-.46-.91-.77-1.31a6.07,6.07,0,0,1-.56-1c-.1-.21-.24-.29-.56-.27"/><path class="cls-1" d="M206,52.37a2,2,0,0,1,1.52,2.07,2.27,2.27,0,0,1-1.8,2,15.5,15.5,0,0,1-3.52.25c-.39,0-.51-.12-.51-.49q0-3.62,0-7.23c0-.28.08-.4.37-.39,1.17,0,2.35,0,3.53.07A2,2,0,0,1,207.17,50a1.85,1.85,0,0,1-1,2.25,1,1,0,0,0-.17.13m-3,1.81a4.81,4.81,0,0,1,0,.76c-.05.43.13.53.52.51s1,0,1.52,0a.85.85,0,0,0,.88-.59c.23-.71.06-1.51-.37-1.64a3.55,3.55,0,0,0-1.2-.31c-1.63,0-1.3-.17-1.34,1.29m0-3.45v.81c0,.19,0,.32.26.31a14.23,14.23,0,0,0,1.73,0,1,1,0,0,0,.65-1.66,1.71,1.71,0,0,0-1.48-.54c-1.16,0-1.16,0-1.16,1.12"/><path class="cls-1" d="M134.85,52.86a5.25,5.25,0,0,1,.4-2.71,3,3,0,0,1,1.85-1.52,4.81,4.81,0,0,1,1.36-.31c1.51.08,2.85.54,3.48,2a5.37,5.37,0,0,1,.2,3.79,3.49,3.49,0,0,1-1.46,2,3.55,3.55,0,0,1-1.4.52,10.41,10.41,0,0,1-1.25,0,3.27,3.27,0,0,1-2.5-1.39,3.41,3.41,0,0,1-.68-2.44m1.34-.27a3.14,3.14,0,0,0,.38,1.9,1.3,1.3,0,0,0,1,.88,3.31,3.31,0,0,0,1.77.08,2.57,2.57,0,0,0,1.15-.82c.28-.34.22-.73.35-1.08a3.7,3.7,0,0,0-.39-3.13,2.23,2.23,0,0,0-3-.61,2.66,2.66,0,0,0-1.27,2.78"/><path class="cls-1" d="M192.25,52.55a4.89,4.89,0,0,1,.38-2.41,3.06,3.06,0,0,1,1.81-1.56,4.19,4.19,0,0,1,1.57-.32,4,4,0,0,1,2.91,1.31,3.68,3.68,0,0,1,.76,1.78,9.24,9.24,0,0,1,0,2.23,3.62,3.62,0,0,1-1.78,2.67,4.1,4.1,0,0,1-2.93.33,3.41,3.41,0,0,1-2.42-2,6.78,6.78,0,0,1-.3-2m1.34-.14a3.65,3.65,0,0,0,.63,2.37c.36.55.91.53,1.42.66a2.24,2.24,0,0,0,1.62-.3c.88-.47,1-1.4,1.1-2.23a4,4,0,0,0-.2-1.81,2,2,0,0,0-1.37-1.53,2.28,2.28,0,0,0-2.6.68,3,3,0,0,0-.6,2.16"/><path class="cls-1" d="M230.53,52.57c0-1.16,0-2.32,0-3.48,0-.39.07-.56.5-.54.87,0,1.74,0,2.61,0a2.34,2.34,0,0,1,1.89,1,2.43,2.43,0,0,1-.78,3.21c-.35.14-.38.37-.25.58a21.07,21.07,0,0,0,1.34,2c.19.23.23.53.47.75s.15.46-.3.54c-1,.17-1.2-.56-1.56-1.15s-.71-1.23-1.08-1.84a1.69,1.69,0,0,0-1.46-.22c-.12.12-.07.28-.07.42,0,.76,0,1.52,0,2.28,0,.61-.38.47-.73.5s-.6,0-.59-.51c0-1.19,0-2.39,0-3.59m1.3-1.68c0,.29,0,.58,0,.87s.11.46.43.44.91,0,1.35-.07a.85.85,0,0,0,.81-.73c.06-1,.17-1.2-.82-1.66a2.36,2.36,0,0,0-1.38-.13c-.8.11-.2.79-.39,1.17a.4.4,0,0,0,0,.11"/><path class="cls-1" d="M119.86,48.58a4,4,0,0,1,2.15.34c.41.28.87.52.91,1.11,0,.28.35.46.27.79-.22.82-.4,1.66-1.32,2-.35.13-.31.35-.12.58.43.57.75,1.22,1.18,1.79.2.26.23.62.5.82s.14.36.09.54-.24.09-.37.12c-.66.12-1-.22-1.26-.77A15.11,15.11,0,0,0,120.71,54c-.18-.24-.2-.56-.63-.58-1.06-.05-1.06-.07-1.06,1,0,.55,0,1.09,0,1.63s0,.68-.59.67-.72-.12-.72-.66c0-1.88,0-3.77,0-5.66,0-.45,0-.9,0-1.36s.13-.45.45-.44h1.69M119,50.93a5.45,5.45,0,0,1,0,.7c-.06.48.19.61.59.59a9,9,0,0,1,1,0,.85.85,0,0,0,.9-.51,1.69,1.69,0,0,0-.09-1.56,2.41,2.41,0,0,0-2.17-.46c-.52.26-.15.81-.26,1.22v.06"/><path class="cls-1" d="M228.6,56.64c-.69,0-.91-.18-1-.85,0-.43-.41-.73-.4-1.19,0-.2-.26-.22-.44-.23-.82,0-1.63,0-2.45,0a.52.52,0,0,0-.51.4c-.07.44-.33.79-.41,1.22a1,1,0,0,1-1.4.63.22.22,0,0,1-.12-.27c.23-.64.45-1.27.69-1.9s.57-1.37.81-2.07.55-1.56.88-2.33a8.94,8.94,0,0,0,.38-1.1.53.53,0,0,1,.57-.44h.33c.74,0,.93.2,1.1.92a6.89,6.89,0,0,0,.52,1.37,6.88,6.88,0,0,1,.36,1c.22.75.54,1.47.79,2.2a9,9,0,0,0,.85,2.09.47.47,0,0,1,0,.47c-.14.22-.4.06-.57.11m-3.06-6.77c-.09.11-.14.14-.15.18a16.07,16.07,0,0,1-.65,2c-.42,1.1-.39,1.11.79,1.11h.05c.34,0,.77.15,1-.11s-.18-.53-.23-.81a17.88,17.88,0,0,0-.8-2.33"/><path class="cls-1" d="M244.26,48.53c.23,0,.6-.06.74.13a3.81,3.81,0,0,1,.43,1.06,11.43,11.43,0,0,0,.57,1.51,8.38,8.38,0,0,1,.37,1c.39,1.15.8,2.29,1.27,3.4a1.23,1.23,0,0,1,.08.37c0,.25.19.56-.2.68a.93.93,0,0,1-1.11-.49,9.58,9.58,0,0,0-.58-1.51.46.46,0,0,0-.44-.27h-2.34c-.32,0-.48.06-.57.45a9.89,9.89,0,0,1-.66,1.71,1.88,1.88,0,0,1-1.13.08.47.47,0,0,1,0-.67c.29-.3.28-.76.4-1.12.24-.73.53-1.45.8-2.16a18.84,18.84,0,0,1,.81-2.12,4.11,4.11,0,0,0,.42-1.11c.12-.76.3-.93,1.1-.93m-.07,4.62v0c.31,0,.62,0,.92,0,.1,0,.35-.07.23-.19-.29-.28-.14-.65-.29-.94a5,5,0,0,1-.59-1.71c0-.11,0-.25-.13-.28s-.14.17-.2.26c-.2.3-.2.74-.37,1-.35.41-.13,1-.52,1.35s-.06.58.36.59h.59"/><path class="cls-1" d="M111.24,52.62c0-1.2,0-2.4,0-3.59,0-.29.06-.44.38-.43h3.81c.43,0,.36.29.37.55s0,.49-.4.48c-.72,0-1.45,0-2.17,0-.5,0-.75.11-.69.66a6.2,6.2,0,0,1,0,1.14c0,.34.12.45.44.44h2.12c.35,0,.59.07.59.51s-.24.53-.58.53c-.65,0-1.31,0-2,0-.43,0-.63.16-.61.61a12,12,0,0,1,0,1.47c0,.38.14.47.47.46.78,0,1.56,0,2.34,0,.5,0,.45.31.45.61s.06.67-.47.66c-1.19,0-2.39,0-3.59,0-.38,0-.51-.13-.5-.49,0-1.2,0-2.4,0-3.59"/><path class="cls-1" d="M153.36,52.63c0-1.17,0-2.35,0-3.53,0-.35.07-.53.48-.52,1.17,0,2.35,0,3.53,0,.37,0,.55.09.55.52s-.18.53-.55.52c-.73,0-1.45,0-2.18,0-.42,0-.55.14-.52.53.05.55-.23,1.25.13,1.62s1,.06,1.52.09H157c.36,0,.62,0,.61.49s-.21.57-.62.56c-.62,0-1.24,0-1.85,0-.36,0-.5.15-.5.48,0,.55,0,1.09,0,1.64,0,.33.09.44.43.43.76,0,1.52,0,2.28,0,.49,0,.53.24.52.61s0,.68-.51.67c-1.15,0-2.29,0-3.43,0-.47,0-.6-.16-.59-.58,0-1.16,0-2.32,0-3.49"/><path class="cls-1" d="M106.44,56.71c-.59,0-.82-.28-1-1.11s-.58-1.7-.87-2.56-.52-1.51-.77-2.27a8.71,8.71,0,0,0-.53-1.45c-.28-.5-.14-.72.44-.72.73,0,.82.09,1,1s.61,1.81.91,2.71c.24.74.47,1.49.72,2.23,0,.11,0,.29.17.3s.13-.17.16-.28c.17-.58.38-1.15.55-1.72s.32-.9.46-1.36a7.62,7.62,0,0,1,.52-1.5c.18-.33.1-.77.39-1.09s1-.43,1.2-.22.09.46-.09.71a3.14,3.14,0,0,0-.35,1c-.21.78-.5,1.53-.77,2.28a20.55,20.55,0,0,1-.83,2.27c-.17.33-.23.72-.38,1.09-.26.62-.27.69-.94.69"/><path class="cls-1" d="M161.33,56.65c-.62.2-1.23-.2-1.88-.34-.26-.05-.23-.27-.22-.43s-.13-.58.1-.77.37-.07.52.13.33.1.5.12a2.89,2.89,0,0,1,1,.14,1.42,1.42,0,0,0,1.4-.25,1.05,1.05,0,0,0-.25-1.82c-.71-.34-1.44-.63-2.11-1a1.54,1.54,0,0,1-.87-1.3,2.69,2.69,0,0,1,.34-1.91,1.55,1.55,0,0,1,.75-.55c.76-.18,1.53-.62,2.36-.16a1.92,1.92,0,0,0,.69.1c.33,0,.64.27.59.53-.14.72-.39.89-.86.65a3.67,3.67,0,0,0-1.53-.24.88.88,0,0,0-1,.58,1.18,1.18,0,0,0,.48,1.39c.58.42,1.29.54,1.89.92a2.19,2.19,0,0,1,1.16,2.7,1.82,1.82,0,0,1-1.25,1.22c-.29.07-.45.4-.8.33a6.1,6.1,0,0,0-1,0"/><path class="cls-1" d="M126.65,56.66c-.6.18-1.19-.2-1.82-.35-.24-.05-.29-.26-.26-.47s-.14-.54.1-.71a.37.37,0,0,1,.56.13c.08.14.29.09.45.1a3.17,3.17,0,0,1,1.17.23,1.86,1.86,0,0,0,1.57-.71,1.25,1.25,0,0,0-.73-1.5,8.6,8.6,0,0,1-2.3-1.27,1.66,1.66,0,0,1-.56-1.09c-.07-.93,0-1.81,1-2.26a2.83,2.83,0,0,1,2.25-.34,3.45,3.45,0,0,0,.95.17.69.69,0,0,1,.61.44,1.1,1.1,0,0,1-.3.76c-.17.18-.46.08-.66,0a3,3,0,0,0-1.86-.17.67.67,0,0,0-.64.59,1.17,1.17,0,0,0,.46,1.3,14.61,14.61,0,0,0,2,.93,2.26,2.26,0,0,1,.7,3.46,2.83,2.83,0,0,1-1.6.79,6.78,6.78,0,0,1-1,0"/><path class="cls-1" d="M213,52.55c0-1.13,0-2.25,0-3.37,0-.45.11-.64.57-.59s.78-.09.76.57c0,1.92,0,3.84,0,5.76,0,.4.09.54.51.53.8,0,1.6,0,2.39,0,.49,0,.42.31.4.58s.16.7-.41.69c-1.25,0-2.5,0-3.75,0-.45,0-.43-.29-.44-.58V52.55"/><path class="cls-1" d="M219.2,52.58c0-1.18,0-2.35,0-3.53,0-.64.44-.43.74-.47s.59,0,.59.46c0,2.34,0,4.67,0,7,0,.46-.12.68-.64.65s-.69-.13-.68-.64c0-1.16,0-2.32,0-3.48"/><path class="cls-1" d="M239.26,52.6c0,1.18,0,2.35,0,3.53,0,.46-.19.58-.62.57s-.7,0-.7-.54q0-3.6,0-7.18c0-.32.14-.39.43-.4.88,0,.88,0,.88.81V52.6"/><path class="cls-1" d="M169.27,52.54c0-1.16,0-2.32,0-3.48,0-.63.42-.45.74-.48s.59,0,.58.47c0,2.34,0,4.68,0,7,0,.42-.11.66-.62.63s-.71-.09-.7-.62c0-1.18,0-2.36,0-3.54"/><path class="cls-1" d="M132.92,52.63c0,1.14,0,2.28,0,3.42,0,.51-.2.64-.68.65s-.63-.19-.63-.63c0-2.33,0-4.67,0-7,0-.52.28-.51.62-.49s.73-.09.71.52c0,1.18,0,2.35,0,3.53"/><path class="cls-1" d="M93.55,52.63c0,1.14,0,2.28,0,3.42,0,.51-.21.64-.69.65s-.63-.19-.63-.63c0-2.33,0-4.67,0-7,0-.52.28-.51.62-.49s.73-.09.71.52c0,1.18,0,2.35,0,3.53"/><path class="cls-1" d="M210.68,52.58c0,1.13,0,2.25,0,3.37,0,.42-.13.71-.63.75s-.69-.18-.69-.64c0-2.34,0-4.68,0-7,0-.48.28-.49.61-.46s.73-.1.72.46c0,1.18,0,2.36,0,3.53"/></svg>