<svg id="Capa_1" data-name="Capa 1" xmlns="http://www.w3.org/2000/svg" viewBox="0 0 123.04 100.09"><defs><style>.cls-1{fill:#fff}</style></defs><title>vista lago</title><path class="cls-1" d="M62.72 37.26c13.08 0 26.15.06 39.23-.06 2.32 0 2.78.8 2.74 2.89s-.26 3.46-2.82 3.11a18.45 18.45 0 0 0-3.24 0c-1.5.07-3.47-.77-3.64 2 0 .55-1 1.06-1.57 1.53-5 4.1-10.06 8.22-15.15 12.25a6.78 6.78 0 0 0-2.46 3.32c-.48 1.49-1.19 2.92-1.73 4.4-2.66 7.3-8.48 11.16-15.2 14.19-6.46 2.92-6.42 3-11.92-1.32-3.2-2.52-6.35-5.12-9.6-7.59a2.82 2.82 0 0 1-1.23-3c.51-3.71.76-7.47 1.41-11.15.9-5.12-1.67-9.39-3.1-13.94-.3-1-1.2-.73-1.91-.73-3.25 0-6.51-.16-9.75 0-2.58.16-2.54-1.29-2.55-3.12s.12-2.92 2.51-2.9c13.32.18 26.65.12 39.98.12zm-22.62 6c3.21 2.78 3.52 5.86 3.76 9.07a65.49 65.49 0 0 0 1.33 6.84c.78 4.18 3.67 5.9 7.52 6.45 4.74.67 9.82-3.49 9.4-7.65-.44-4.38-.93-8.76-1.29-13.14-.1-1.16-.39-1.6-1.6-1.59-6.06.05-12.13.02-19.12.02zM67.76 52c1.49-2.91 2.84-5.7 4.38-8.72a32.29 32.29 0 0 1-3.59 0c-1.77-.22-2.11.57-1.83 2.12.4 2.16.7 4.37 1.04 6.6zm19.52-8.61c-6.79-.57-8.85.77-9.58 6zm-24.8-9.22c-11.25 0-22.5-.05-33.75 0-2.05 0-2.46-.53-2.21-2.53 1.26-10 7.77-15.63 16-19.9a28.36 28.36 0 0 1 4.4-1.74c3.24-1 6-2.06 8.32-5.3C59.1-.72 68.27.57 71.49 6.56a4.27 4.27 0 0 0 3.12 2.38c8 2 15.07 5.76 20.14 12.56a20.33 20.33 0 0 1 4 10.33c.18 1.9-.44 2.4-2.32 2.39-11.28-.09-22.62-.05-33.95-.05zm7-26.29c-1.92-3-4.17-4.46-7.23-4.35-2.83.1-4.87 1.56-6.68 4.37a63.42 63.42 0 0 1 13.92-.02zM52 85.81a42 42 0 0 0-3 3.81c-1.18 1.93-2.17 1.86-3.85.45-4.65-3.9-9.44-7.63-14.22-11.36-1.2-.94-1.51-1.59-.43-2.95 3.8-4.76 3.75-4.76 8.5-1 3.83 3.06 7.67 6.11 11.48 9.2.59.45 1.3.81 1.52 1.85zm-3.59-.17a2 2 0 0 0-2.06-2 2 2 0 0 0-2 2 1.89 1.89 0 0 0 2 2c1.17.08 1.86-.73 2.02-2z"/></svg>