<svg id="Capa_1" data-name="Capa 1" xmlns="http://www.w3.org/2000/svg" viewBox="0 0 130.88 123.61"><defs><style>.cls-1{fill:#fff}</style></defs><title>vista lago</title><path class="cls-1" d="M28.61 59.75l-2.27 4.76-1.89 3.95a2.91 2.91 0 0 1-4 1.53 3 3 0 0 1-1.35-4.06l4.11-8.62 2.61-5.42c.15-.31.2-.5-.22-.68a2.84 2.84 0 0 1 1.21-5.41h68.91a2.84 2.84 0 0 1 2.89 2.2A2.8 2.8 0 0 1 97 51.23c-.42.2-.34.36-.19.68q3.3 6.87 6.57 13.74a3.24 3.24 0 0 1 .16 2.95 2.93 2.93 0 0 1-5.28 0q-1.81-3.78-3.61-7.56a6 6 0 0 0-.77-1.29v9.65c-.08 4 .6 8 1 11.92q.81 8.24 1.75 16.46a3.37 3.37 0 0 1-4.57 3.74A3.12 3.12 0 0 1 90 98.87c-.45-4-.87-8.06-1.31-12.1L87.2 72.86c0-.44-.2-.6-.65-.57a19.64 19.64 0 0 1-2 0c-.44 0-.59.13-.64.57-.31 3-.64 6-1 9-.6 5.59-1.19 11.19-1.81 16.78a3.32 3.32 0 0 1-3.61 3.09A3.36 3.36 0 0 1 74.46 98c.21-2.1.45-4.2.67-6.31.42-3.92.85-7.84 1.26-11.77.26-2.37.55-4.74.74-7.12s.07-4.93.08-7.39V52.26c0-.59-.18-.73-.74-.72h-6.15c-.43 0-.55.13-.55.55 0 6.61-.07 13.22.06 19.83.05 2.82.53 5.64.84 8.45.64 5.82 1.33 11.63 1.9 17.48a3.4 3.4 0 0 1-6 2.63 3.41 3.41 0 0 1-.71-1.8q-1.39-12.81-2.76-25.62c-.06-.54-.18-.84-.81-.78a11.19 11.19 0 0 1-1.83 0c-.52 0-.72.13-.78.66-.47 4.6-1 9.2-1.48 13.79q-.66 6-1.33 12a3.35 3.35 0 0 1-3.57 3 3.3 3.3 0 0 1-3.15-3.43c.09-1.81.34-3.6.54-5.4q1-9.53 2.05-19.06a91.45 91.45 0 0 0 .15-9.22V52.13c0-.52-.14-.67-.65-.66h-6.15c-.55 0-.64.19-.64.68 0 6.43-.07 12.87 0 19.3 0 2.59.47 5.17.74 7.75Q47 87 47.86 94.79c.11 1 .22 2 .34 3.06a3.38 3.38 0 0 1-3 3.91 3.31 3.31 0 0 1-3.68-3.08C41 93 40.3 87.28 39.74 81.57c-.28-2.9-.65-5.8-1-8.71-.05-.42-.18-.6-.64-.57a15.29 15.29 0 0 1-2 0c-.5 0-.62.19-.67.63-.18 1.89-.32 3.78-.61 5.65-.25 1.59-.3 3.2-.54 4.8-.34 2.28-.47 4.58-.71 6.88-.29 2.86-.59 5.72-.92 8.58A3.34 3.34 0 0 1 26 98.1c.14-1.8.37-3.6.56-5.4q.69-6.54 1.39-13.07c.24-2.3.54-4.6.71-6.9.12-1.52.07-3 .07-4.58v-8.37zm7.29-15.09A7.64 7.64 0 1 1 43.54 37a7.62 7.62 0 0 1-7.64 7.66zM53.71 37a7.63 7.63 0 1 1 7.43 7.71A7.61 7.61 0 0 1 53.71 37zm39.47 0a7.63 7.63 0 1 1-7.61-7.62A7.59 7.59 0 0 1 93.18 37z"/></svg>