<svg xmlns="http://www.w3.org/2000/svg" id="Capa_1" data-name="Capa 1" viewBox="0 0 1934.26 588.12"><defs><style>.cls-1{fill:#000}</style></defs><title>Artboard 14</title><path d="M1920 113.85c-156.61 77.83-314.62 152.4-471.95 228.53L973.57 564.92 924 588.12l-25.7-55.72c-38.69-83.74-93.6-168.52-157.73-234.32-65.17-65.87-137.67-116.22-214.89-139.31-77.09-23.17-164.68-15.44-252.43 17.62C184.76 207.82 98.7 260.12 10.65 315L0 304.35C56.22 215.9 129 136 223.69 76.77 316 17.21 441-18 563.21 9.49c122.13 27.18 218.27 108.27 285.08 195.86 68 89.43 117.84 182.55 156.53 287.06L929.49 460l491.09-183.07c164.53-59 328.35-119.62 493.58-177z" class="cls-1"/></svg>